<?xml version="1.0" encoding="utf-8"?>
<!-- Generator: Adobe Illustrator 16.0.0, SVG Export Plug-In . SVG Version: 6.00 Build 0)  -->
<!DOCTYPE svg PUBLIC "-//W3C//DTD SVG 1.1//EN" "http://www.w3.org/Graphics/SVG/1.1/DTD/svg11.dtd">
<svg version="1.1" id="Capa_1" xmlns="http://www.w3.org/2000/svg" xmlns:xlink="http://www.w3.org/1999/xlink" x="0px" y="0px"
	 width="365.49px" height="414.551px" viewBox="0 0 365.49 414.551" enable-background="new 0 0 365.49 414.551"
	 xml:space="preserve">
<g>
	<path fill="#30529B" d="M135.239,73.971L121.294,50.75c-0.055-0.092-0.137-0.163-0.235-0.204L88.534,36.881
		c-0.116-0.048-0.249-0.052-0.367-0.008l-1.878,0.688l-1.508-2.172c-0.054-0.079-0.13-0.14-0.217-0.177L0.79,0.016
		c-0.231-0.097-0.5-0.008-0.627,0.209C0.035,0.442,0.088,0.72,0.288,0.874l60.791,47.249c0.101,0.078,0.229,0.117,0.356,0.103
		l3.828-0.371l0.584,3.797c0.02,0.126,0.086,0.241,0.188,0.32L86.61,67.962c0.03,0.023,0.063,0.043,0.097,0.059l37.89,17.519
		l6.368,13.8c0.083,0.18,0.262,0.292,0.455,0.292c0.024,0,0.049-0.002,0.074-0.006c0.221-0.033,0.393-0.208,0.423-0.428
		l3.389-24.901C135.321,74.183,135.298,74.069,135.239,73.971z M66.806,51.302l-0.547-3.56l25.193,7.542l-24.496-3.866
		L66.806,51.302z M60.469,46.379L44.453,29.249l20.366,17.64l-3.283,0.318L60.469,46.379z M85.731,38.498
		c0.088,0.098,0.207,0.155,0.334,0.163l8.292,16.545L75.971,40.549L85.731,38.498z M113.022,61.304l-16.901-5.141l24.162-4.785
		L113.022,61.304z M95.255,55.824l-6.372-17.708l30.689,12.893L95.255,55.824z M93.435,52.245L86.56,38.53l1.714-0.628
		L93.435,52.245z M65.887,46.859c-0.077-0.035-0.161-0.057-0.25-0.048l-0.13,0.013L42.031,26.489l32.857,13.979L65.887,46.859z
		 M75.387,40.136L43.349,26.508l39.515,9.079l0.632,0.265L75.387,40.136z M40.758,25.399L4.636,2.72l75.525,31.731L40.758,25.399z
		 M40.496,25.822C40.497,25.822,40.497,25.823,40.496,25.822l0.346,0.3l17.114,18.304L6.825,4.685L40.496,25.822z M66.249,47.216
		l9.14-6.49l18.535,14.774L66.249,47.216z M112.943,61.805l11.138,22.14L96.008,56.653L112.943,61.805z M123.206,83.793
		l-35.76-16.534l7.681-10.763L123.206,83.793z M124.886,84.428l-11.012-21.889l13.5,11.072L124.886,84.428z M127.753,73.274
		l-12.05-9.883l17.984,10.474L127.753,73.274z M133.642,73.259L113.485,61.52l7.198-9.841L133.642,73.259z M85.409,38.053
		l-8.315,1.747l6.971-3.682L85.409,38.053z M67.775,52.055l26.877,4.241l-7.641,10.708L67.775,52.055z M125.308,84.83l2.291-9.96
		l3.191,21.697l-5.36-11.615C125.405,84.899,125.349,84.872,125.308,84.83z M131.279,96.449l-3.332-22.652l6.33,0.631
		L131.279,96.449z"/>
	<path fill="#30529B" d="M184.66,161.177l1.62-2.347c0.141-0.205,0.11-0.483-0.073-0.653l-2.463-2.277l-2.472-14.187
		c-0.021-0.121-0.086-0.229-0.181-0.305l-46.864-37.405c-0.184-0.146-0.444-0.146-0.627,0.001c-0.183,0.146-0.239,0.401-0.135,0.611
		l9.884,20.085l8.177,10.901c0.066,0.09,0.162,0.154,0.269,0.183l5.147,1.403l-3.397,6.992c-0.088,0.181-0.059,0.397,0.073,0.549
		l34.037,39.048c0.098,0.112,0.237,0.172,0.378,0.172c0.072,0,0.146-0.016,0.215-0.049c0.203-0.097,0.317-0.317,0.277-0.539
		L184.66,161.177z M187.133,181.205l-11.848-22.471l8.237,3.334l0.189-0.465l-7.588-3.07l8.975,0.243l-1.379,2.001
		c-0.074,0.107-0.104,0.24-0.08,0.371L187.133,181.205z M157.946,136.115l-4.179-8.686l15.602,12.944L157.946,136.115z
		 M182.832,156.323c0.027,0.071,0.051,0.145,0.106,0.197l1.889,1.746l-9.755-0.264l2.16-7.715L182.832,156.323z M176.964,149.51
		l-7.408-1.253l10.678-5.872L176.964,149.51z M169.217,147.87l1.861-6.299l8.805,0.434L169.217,147.87z M179.588,141.489
		l-8.599-0.424l-0.176-0.146l0.003-0.007l-0.021-0.007l-15.566-12.911l24.111,13.297L179.588,141.489z M153.205,126.305
		l-16.426-18.984l40.241,32.119L153.205,126.305z M170.541,141.344l0.064,0.054l-1.958,6.63l-10.013-11.122L170.541,141.344z
		 M168.739,148.625c0.004,0.001,0.009-0.002,0.013-0.001s0.006,0.006,0.01,0.007l8.033,1.36l-2.199,7.854l-19.192-12.807
		L168.739,148.625z M174.552,158.418l11.746,22.276l-30.086-34.515L174.552,158.418z M182.546,154.87l-5.135-5.135l3.074-6.698
		L182.546,154.87z M135.644,106.774l16.658,19.248l-8.416-2.483L135.644,106.774z M144.199,124.177l-0.014-0.027l8.59,2.535
		l-0.706,7.973L144.199,124.177z M152.547,134.95l0.667-7.519l4.263,8.862L152.547,134.95z M158.107,137.081
		c0.002-0.002,0.001-0.006,0.002-0.008l9.71,10.786l-13.22-3.558L158.107,137.081z"/>
	<path fill="#30529B" d="M140.749,98.875c-0.058,0.199,0.013,0.413,0.178,0.538l21.116,16.07c0.082,0.062,0.18,0.098,0.283,0.102
		l5.087,0.216l0.936,4.331c0.026,0.117,0.092,0.221,0.187,0.292l19.729,15.016c0.063,0.049,0.138,0.082,0.217,0.095l41.466,7.219
		c0.029,0.005,0.058,0.007,0.086,0.007c0.188,0,0.363-0.107,0.448-0.28c0.099-0.2,0.053-0.44-0.11-0.591l-22.289-20.412
		c-0.036-0.033-0.078-0.062-0.122-0.083l-4.98-2.381l-0.297-4.779c-0.008-0.121-0.059-0.236-0.146-0.322l-18.759-18.855
		c-0.104-0.104-0.248-0.156-0.399-0.146l-42.192,3.603C140.98,98.533,140.806,98.676,140.749,98.875z M201.996,119.342l-9.545,5.525
		l9.281-9.762L201.996,119.342z M177.971,111.805l-8.616,7.443l3.796-11.681L177.971,111.805z M181.957,106.033l8.16,18.394
		l-11.417-12.624c-0.012-0.013-0.031-0.01-0.045-0.02L181.957,106.033z M190.804,125.976l-2.29,8.316l-9.156-21.017l11.409,12.619
		L190.804,125.976z M178.325,112.162l9.423,21.625l-18.318-13.941L178.325,112.162z M191.236,126.298l35.602,14.898l-37.888-6.597
		L191.236,126.298z M201.66,114.453l-10.514,11.059l-8.67-19.545l18.939,8.241L201.66,114.453z M181.745,105.397l-2.853,4.966
		l3.862-12.049L181.745,105.397z M178.086,111.24l-4.614-4.058l9.341-10.691L178.086,111.24z M173.039,106.926l-29.583-7.598
		l39.133-3.341L173.039,106.926z M142.993,99.727l29.55,7.589l-9.95,7.278l-0.069-0.003L142.993,99.727z M163.394,114.628
		l8.693-6.365l-4.242,6.554c-0.001,0-0.002-0.001-0.004-0.001L163.394,114.628z M168.311,115.211
		c-0.009-0.043-0.028-0.08-0.047-0.117l3.846-5.942l-3.068,9.44L168.311,115.211z M228.118,141.188l-36.253-15.17l15.467-3.81
		l0.127,0.061L228.118,141.188z M206.62,121.867l-13.905,3.426l9.54-5.522c0.011,0.006,0.016,0.018,0.026,0.022L206.62,121.867z
		 M200.457,113.243l-18.195-7.917l1.292-9.07L200.457,113.243z"/>
	<path fill="#30529B" d="M144.002,71.261l-1.429,15.906c-0.013,0.141,0.035,0.281,0.13,0.385c0.095,0.103,0.229,0.162,0.369,0.162
		c0.001,0,0.003,0,0.004,0l37.452-0.34c0.217-0.002,0.408-0.143,0.473-0.35c0.066-0.206-0.009-0.431-0.186-0.558l-19.114-13.728
		c-0.119-0.086-0.271-0.114-0.413-0.08l-4.618,1.149l0.52-3.986c0.024-0.183-0.055-0.364-0.205-0.471L132.13,51.497
		c-0.194-0.141-0.465-0.122-0.641,0.046c-0.174,0.167-0.204,0.435-0.071,0.637L144.002,71.261z M155.582,74.406
		c-0.011,0.082,0,0.163,0.027,0.238l-3.488,4.188l3.813-7.126L155.582,74.406z M150.809,81.152l26.113,5.252L144.323,86.7
		L150.809,81.152z M143.833,86.46l4.819-15.719l1.815,10.044L143.833,86.46z M151.402,80.76l10.513-6.636l16.921,12.153
		L151.402,80.76z M149.019,69.949l7.062,0.421l-5.223,9.76L149.019,69.949z M148.829,69.436l-14.063-14.811l21.214,15.236
		L148.829,69.436z M148.265,69.57l-3.401,1.176l-10.275-15.579L148.265,69.57z M145.011,71.225l3.319-1.147l-4.549,14.837
		L145.011,71.225z M161.306,73.687l0.17,0.122l-9.529,6.015L156,74.957c0.066,0.01,0.133,0.017,0.2,0L161.306,73.687z"/>
	<path fill="#30529B" d="M272.825,276.785c0.065,0,0.131-0.013,0.192-0.038c0.147-0.062,0.257-0.189,0.295-0.343l6.309-25.542
		c0.025-0.104,0.018-0.213-0.023-0.312l-1.71-4.122l3.188-2.041c0.108-0.068,0.187-0.177,0.217-0.3l3.848-15.573
		c0.049-0.2-0.027-0.409-0.194-0.528l-24.127-17.275l-71.585-63.514c-0.168-0.149-0.414-0.167-0.601-0.049
		c-0.189,0.12-0.276,0.349-0.215,0.563l17.348,60.08c0.035,0.121,0.113,0.224,0.221,0.29l6.718,4.081l-3.62,6.594
		c-0.063,0.115-0.078,0.252-0.041,0.38l6.791,23.521c0.036,0.122,0.116,0.226,0.225,0.292l56.508,33.766
		C272.646,276.761,272.735,276.785,272.825,276.785z M205.813,173.231l51.145,36.673l-45.993-23.084L205.813,173.231z
		 M256.74,210.358l-30.501-9.698l-13.938-12.608L256.74,210.358z M259.087,211.631l-23.695,14.189l-8.871-24.545L259.087,211.631z
		 M259.639,211.885l-13.609,19.978l-10.269-5.683L259.639,211.885z M259.705,211.26l-54.228-38.887l-14.805-22.56l69.168,61.366
		L259.705,211.26z M210.503,187.019l-4.059,18.57l-0.86-31.563L210.503,187.019z M206.654,207.249l-0.034-0.121l4.296-19.652
		l14.711,13.306L206.654,207.249z M234.608,225.13l-20.482-13.494l12.045-9.851L234.608,225.13z M245.282,232.023l-0.355,0.035
		l0.407,0.138l-27.86,9.656l17.813-15.361L245.282,232.023z M245.998,232.498l25.813,42.597l-54.595-32.623L245.998,232.498z
		 M272.543,275.336l-25.704-42.419l31.583,18.617L272.543,275.336z M278.608,250.782l-0.061,0.244l-28.368-16.723l26.591,11.98
		c0.005,0.048,0.012,0.095,0.03,0.141L278.608,250.782z M276.994,245.81c-0.008,0.005-0.012,0.013-0.019,0.018l-26.021-11.726
		l28.975,9.831L276.994,245.81z M280.391,243.56l-33.104-11.231l36.772-3.625L280.391,243.56z M283.588,228.247l-36.971,3.645
		l13.791-20.246L283.588,228.247z M190.067,149.805l14.978,22.811l0.872,32.081L190.067,149.805z M207.148,207.612l18.811-6.413
		l0.031,0.086l-12.446,10.179c-0.008,0.007-0.012,0.017-0.019,0.024L207.148,207.612z M213.815,212.225
		c0.028-0.052,0.042-0.106,0.051-0.16l20.785,13.692l-24.507-6.848L213.815,212.225z M210.175,219.44l24.565,6.864l-18.082,15.588
		L210.175,219.44z"/>
	<path fill="#30529B" d="M200.191,144.156c-0.105,0.21-0.052,0.467,0.132,0.616l50.395,41.209c0.08,0.065,0.18,0.104,0.282,0.111
		l5.36,0.391l1.021,5.412c0.021,0.114,0.082,0.218,0.172,0.293l37.645,31.185l1.733,3.866l-0.159,0.442
		c-0.034,0.096-0.008,0.202,0.066,0.271c0.047,0.043,0.106,0.065,0.168,0.065c0.036,0,0.072-0.008,0.105-0.023l0.313-0.144
		l39.097,29.761c0.09,0.068,0.196,0.104,0.303,0.104c0.117,0,0.232-0.041,0.325-0.121c0.181-0.152,0.229-0.41,0.117-0.617
		l-35.396-65.845c-0.023-0.043-0.053-0.082-0.087-0.117l-8.979-8.98c-0.073-0.073-0.166-0.122-0.268-0.14l-5.013-0.873l-1.28-5.442
		c-0.021-0.091-0.067-0.173-0.133-0.239l-12.41-12.41c-0.063-0.063-0.142-0.108-0.229-0.13l-72.704-18.902
		C200.538,143.837,200.298,143.945,200.191,144.156z M297.901,226.953l-0.186-0.412l3.846-10.633l8.928,5.354l-12.488,5.77
		L297.901,226.953z M295.721,222.506l-0.002-0.001l-6.124-23.147l0.028-0.019l11.493,16.19L295.721,222.506z M280.864,196.366
		l-23.467-10.987l13.364-9.437L280.864,196.366z M294.829,221.104l-12.932-23.829l7.253,1.785c-0.073,0.062-0.112,0.157-0.086,0.251
		L294.829,221.104z M281.24,197.117l13.206,24.334l-35.092-29.073L281.24,197.117z M301.681,215.393l-0.002-22.421l8.902,27.759
		L301.681,215.393z M311.25,221.176l-8.328-25.97l30.723,57.15L311.25,221.176z M301.124,191.864l0.053,0.097l0.002,22.788
		l-11.135-15.683L301.124,191.864z M289.707,198.687c-0.006-0.002-0.009-0.009-0.015-0.01l-7.294-1.794l17.534-4.84L289.707,198.687
		z M271.371,176.047l15.226,6.135l-5.224,14.083L271.371,176.047z M204.942,146.02l68.059,17.694l-2.329,11.5L204.942,146.02z
		 M270.251,175.575l-19.555,9.092l-47.59-38.914L270.251,175.575z M251.231,185.104l-0.104-0.084l17.311-8.049l-11.683,8.25
		c-0.072,0.051-0.112,0.138-0.104,0.226c0.002,0.02,0.014,0.036,0.02,0.054L251.231,185.104z M257.275,185.917
		c-0.004-0.022-0.024-0.035-0.031-0.055l22.044,10.32l-20.771-4.497l-0.186-0.154L257.275,185.917z M296.071,222.873l4.579-5.922
		l-3.229,8.933L296.071,222.873z M310.94,221.604l24.205,33.7l-36.693-27.93L310.94,221.604z M300.668,191.318l-18.613,5.139
		l10.267-13.487L300.668,191.318z M291.829,182.789l-9.603,12.615l4.925-13.277c0.021-0.052,0.011-0.104-0.005-0.153
		L291.829,182.789z M286.623,181.574c0.01,0.04,0.04,0.066,0.059,0.101l-14.505-5.844l13.116,0.11l0.007,0.007L286.623,181.574z
		 M284.787,175.436l-13.625-0.114l2.275-11.233L284.787,175.436z"/>
	<path fill="#30529B" d="M246.677,145.569c0.063,0.058,0.142,0.099,0.225,0.119l15.879,3.716c0.038,0.009,0.076,0.013,0.115,0.013
		c0.155,0,0.304-0.072,0.4-0.2c0.119-0.159,0.134-0.373,0.036-0.546l-17.048-30.358c-0.051-0.092-0.132-0.166-0.228-0.21
		l-18.403-8.468c-0.085-0.039-0.178-0.052-0.271-0.042l-3.368,0.416l-2.271-3.027c-0.05-0.067-0.116-0.12-0.192-0.155l-31.15-14.334
		c-0.224-0.104-0.49-0.028-0.626,0.178c-0.138,0.205-0.104,0.479,0.077,0.646L246.677,145.569z M239.003,125.355l7.093,18.175
		l-13.743-18.619L239.003,125.355z M239.083,124.858l-6.205-0.415l11.834-5.122L239.083,124.858z M231.988,124.283l-4.048-13.413
		l16.981,7.813L231.988,124.283z M218.621,112.693l-24.93-17.582l27.216,12.523L218.621,112.693z M218.559,113.261l13.085,11.534
		l12.837,17.393l-49.68-45.683L218.559,113.261z M219.188,113.15l4.092-1.722l7.427,11.874L219.188,113.15z M247.021,144.522
		l-7.172-18.38l21.917,21.994l-14.507-3.395L247.021,144.522z M261.122,146.781l-21.588-21.663l6.07-5.971L261.122,146.781z
		 M227.338,110.607l3.711,12.296l-7.441-11.897c0.075,0.03,0.157,0.044,0.241,0.034L227.338,110.607z M223.385,110.843
		c0.012,0.015,0.03,0.02,0.043,0.033c-0.048-0.01-0.098-0.013-0.146,0.007l-4.067,1.712l2.062-4.563L223.385,110.843z"/>
	<path fill="#30529B" d="M123.018,93.669c-0.048-0.093-0.125-0.169-0.219-0.216l-41.367-20.77c-0.233-0.117-0.518-0.036-0.653,0.187
		c-0.136,0.224-0.078,0.513,0.134,0.667l49.136,35.629c0.088,0.063,0.191,0.095,0.294,0.095c0.117,0,0.234-0.041,0.328-0.122
		c0.176-0.152,0.225-0.406,0.116-0.612L123.018,93.669z M128.659,106.625l-8.145-9.513l1.857-2.515L128.659,106.625z
		 M120.132,96.787L93.952,80.091l28.093,14.105L120.132,96.787z M93.606,79.917l-0.248,0.39l26.671,17.008l7.559,8.83L86.497,76.348
		L93.606,79.917z"/>
	<path fill="#30529B" d="M296.431,235.331c-0.163-0.127-0.386-0.144-0.566-0.04l-5.951,3.483c-0.123,0.072-0.21,0.194-0.237,0.335
		l-5.392,27.273c-0.053,0.26,0.107,0.516,0.364,0.582l43.99,11.52l20.244,4.107c0.033,0.007,0.066,0.01,0.1,0.01
		c0.185,0,0.356-0.101,0.444-0.269c0.104-0.197,0.064-0.439-0.097-0.594l-25.957-24.964L296.431,235.331z M328.28,272.965
		l-3.668-12.873l5.998,11.556L328.28,272.965z M330.455,272.311l-1.654,4.234l-0.404-3.072L330.455,272.311z M327.536,272.182
		l-4.537-5.777l0.801-7.334L327.536,272.182z M323.393,258.182l-0.865,7.942l-15.548-6.242l16.298-1.812L323.393,258.182z
		 M305.95,260.01l15.182,6.093l-34.723,0.12L305.95,260.01z M322.369,266.601l0.215,0.086l4.949,6.302l-39.045-6.271
		L322.369,266.601z M327.902,273.556l0.504,3.831l-37.037-9.698L327.902,273.556z M331.071,272.109l15.755,9.042l-17.87-3.624
		L331.071,272.109z M331.133,271.566l-6.158-11.863l21.472,20.652L331.133,271.566z M322.807,257.619l-16.687,1.855l-9.211-22.48
		l25.804,20.535L322.807,257.619z M296.075,236.33l0.03,0.024l8.914,21.756l-14.326-18.631L296.075,236.33z M290.509,240.062
		l15.035,19.552l-20.167,6.41L290.509,240.062z"/>
	<path fill="#30529B" d="M335.887,289.631l-4.35,3.882l-3.885-5.645c-0.073-0.106-0.185-0.181-0.313-0.207l-47.486-9.792
		c-0.235-0.056-0.482,0.084-0.568,0.313c-0.088,0.231,0.007,0.491,0.22,0.612l29.95,16.998l15.53,45.579
		c0.04,0.118,0.124,0.219,0.233,0.278l18.529,10.133l16.156,27.172c0.093,0.155,0.258,0.245,0.43,0.245
		c0.055,0,0.108-0.009,0.161-0.026c0.223-0.075,0.364-0.297,0.338-0.532l-6.15-53.708c-0.013-0.111-0.062-0.214-0.139-0.293
		l-4.008-4.122l3.025-4.255c0.071-0.101,0.104-0.226,0.09-0.348l-2.636-23.021c-0.024-0.215-0.186-0.391-0.397-0.434l-14.297-2.948
		C336.167,289.477,336.005,289.525,335.887,289.631z M325.863,340.84l-0.019-0.05l5.543-18.751l12.809,13.745L325.863,340.84z
		 M323.771,298.179l-40.135-18.509l43.203,8.911L323.771,298.179z M323.767,298.748l10.502,16.915l-23.462-19.75L323.767,298.748z
		 M335.122,317.037l0.117,0.188l-3.948,3.948l-18.8-23.188L335.122,317.037z M344.56,335.44l-12.738-13.672l17.653-0.927
		c0.012,0.018,0.021,0.036,0.036,0.053L344.56,335.44z M331.909,321.263l3.825-3.824c0.051-0.051,0.065-0.119,0.063-0.188
		l12.425,3.154L331.909,321.263z M336.452,290.562l13.515,2.787l-14.373,22.609L336.452,290.562z M331.034,294.551
		c0.082,0.118,0.211,0.196,0.354,0.213c0.14,0.02,0.286-0.028,0.394-0.123l4.157-3.714l-0.801,23.71l-3.773-19.577l-0.491,0.094
		l3.937,20.43l-10.534-16.965l6.627-3.628l-0.241-0.44l-6.308,3.455l2.872-8.986L331.034,294.551z M285.853,281.244l35.874,16.544
		l-11.38-2.488l-0.003-0.01c-0.041-0.117-0.121-0.214-0.228-0.274L285.853,281.244z M310.839,296.744l20.154,24.857l-5.428,18.365
		L310.839,296.744z M326.471,341.192l17.928-4.942l-0.516,14.464L326.471,341.192z M344.374,350.993l0.492-13.769l13.187,36.656
		l-13.513-22.729C344.5,351.086,344.439,351.035,344.374,350.993z M359.571,376.433l-0.167-0.282l-14.457-40.182l8.83-10.132
		L359.571,376.433z M353.679,325.187l-8.37,9.606l4.591-13.491L353.679,325.187z M349.521,320.217l-12.532-3.181l15.342-0.771
		L349.521,320.217z M352.623,315.749l-16.839,0.846l14.35-22.574L352.623,315.749z"/>
	<path fill="#30529B" d="M365.435,413.818l-27.153-52.379c-0.045-0.086-0.112-0.156-0.195-0.205l-19.854-11.392l-11.292-44.909
		c-0.034-0.134-0.122-0.249-0.243-0.315l-25.113-13.992c-0.051-0.028-0.105-0.048-0.164-0.057l-10.127-1.649l-5.582-7.095
		c-0.041-0.052-0.092-0.095-0.149-0.127l-35.132-19.573c-0.193-0.109-0.432-0.077-0.591,0.076c-0.159,0.154-0.198,0.393-0.099,0.589
		l38.851,76.229c0.064,0.127,0.179,0.22,0.314,0.258l5.424,1.453l-2.047,5.161c-0.053,0.134-0.046,0.283,0.02,0.411l7.701,15.111
		c0.041,0.081,0.104,0.149,0.181,0.197l84.541,52.864c0.081,0.051,0.173,0.076,0.266,0.076c0.122,0,0.244-0.045,0.34-0.133
		C365.495,414.264,365.538,414.019,365.435,413.818z M363.142,411.572l-26.946-30.59c-0.015-0.017-0.031-0.031-0.05-0.044
		l-0.418-0.274l2.203-17.723L363.142,411.572z M313.799,366.262l23.609-4.261l0.051,0.03l0.063,0.123l-2.262,18.202L313.799,366.262
		z M313.028,365.623L293.21,343.93l24.037,6.657L313.028,365.623z M313.496,365.806l4.233-15.085l0.033,0.01l18.97,10.883
		L313.496,365.806z M317.255,350.068l-24.631-6.819l-16.559-41.011l41.139,47.629L317.255,350.068z M271.503,289.969l9.327,1.521
		l-5.158,9.729L271.503,289.969z M270.981,290.003l4.331,11.687l-13.069,5.328L270.981,290.003z M261.479,307.61l6.604,28.203
		l-35.024-68.719L261.479,307.61z M262.003,307.656l13.302-5.422l-6.303,35.315L262.003,307.656z M292.032,343.125l-16.109-3.088
		l-0.039-36.913L292.032,343.125z M312.486,365.762l-31.206-5.089l11.155-16.846L312.486,365.762z M313.054,366.364l20.49,13.465
		l-51.106-18.457L313.054,366.364z M335.349,381.014l0.493,0.323l27.246,30.932l-80.397-50.273L335.349,381.014z M316.933,348.787
		l-40.243-46.594l29.05,3.041l0.278,0.155L316.933,348.787z M304.625,304.612l-28.599-2.993l5.297-9.99L304.625,304.612z
		 M270.596,289.656l-8.427,16.409l3.264-22.972L270.596,289.656z M264.985,282.524l0.021,0.025l-3.454,24.294l-30.123-42.945
		l-0.05-0.096L264.985,282.524z M269.381,338.364l-0.011-0.021l6.014-33.7l0.039,35.49c-0.067-0.107-0.167-0.193-0.291-0.227
		L269.381,338.364z M275.468,340.576c0.021-0.053,0.025-0.108,0.027-0.163c0.035,0.037,0.078,0.067,0.131,0.077l15.257,2.923
		l-17.478,2.363L275.468,340.576z M273.304,346.031l0.007,0.044l-0.014-0.026L273.304,346.031z M273.414,346.28l18.449-2.493
		l-11.144,16.826L273.414,346.28z"/>
</g>
</svg>
