<?xml version="1.0" encoding="utf-8"?>
<!-- Generator: Adobe Illustrator 16.0.0, SVG Export Plug-In . SVG Version: 6.00 Build 0)  -->
<!DOCTYPE svg PUBLIC "-//W3C//DTD SVG 1.1//EN" "http://www.w3.org/Graphics/SVG/1.1/DTD/svg11.dtd">
<svg version="1.1" id="Capa_1" xmlns="http://www.w3.org/2000/svg" xmlns:xlink="http://www.w3.org/1999/xlink" x="0px" y="0px"
	 width="365.49px" height="414.551px" viewBox="0 0 365.49 414.551" enable-background="new 0 0 365.49 414.551"
	 xml:space="preserve">
<g>
	<path fill="#222221" d="M365.263,413.59l-60.641-47.131c-0.101-0.078-0.227-0.11-0.354-0.104l-3.819,0.371l-0.582-3.789
		c-0.02-0.126-0.086-0.24-0.188-0.318l-20.525-15.951c-0.03-0.023-0.063-0.043-0.097-0.06l-37.796-17.476l-6.353-13.767
		c-0.093-0.201-0.303-0.319-0.528-0.284c-0.22,0.032-0.392,0.206-0.421,0.427l-3.381,24.84c-0.016,0.112,0.008,0.228,0.066,0.325
		l13.91,23.164c0.055,0.091,0.137,0.162,0.235,0.203l32.445,13.631c0.116,0.05,0.246,0.053,0.365,0.009l1.874-0.688l1.504,2.167
		c0.055,0.078,0.13,0.139,0.218,0.176l83.566,35.109c0.063,0.026,0.128,0.039,0.193,0.039c0.173,0,0.34-0.09,0.432-0.247
		C365.515,414.02,365.461,413.743,365.263,413.59z M280.03,376.058c-0.089-0.097-0.207-0.153-0.334-0.162l-8.271-16.504l18.34,14.62
		L280.03,376.058z M298.908,363.286l0.546,3.552l-25.131-7.523l24.436,3.855L298.908,363.286z M305.228,368.195l15.975,17.084
		l-20.31-17.591l3.273-0.318L305.228,368.195z M299.829,367.716c0.076,0.034,0.158,0.058,0.245,0.052l0.13-0.013l23.418,20.283
		l-32.775-13.944L299.829,367.716z M299.464,367.362l-9.118,6.474l-18.487-14.738L299.464,367.362z M252.886,352.809l-11.11-22.084
		l28.003,27.224L252.886,352.809z M242.648,330.877l35.672,16.493l-7.662,10.736L242.648,330.877z M240.972,330.241l10.985,21.836
		l-13.467-11.046L240.972,330.241z M238.112,341.368l12.021,9.859l-17.941-10.449L238.112,341.368z M252.807,353.308l16.857,5.129
		l-24.101,4.772L252.807,353.308z M270.53,358.775l6.355,17.665l-30.613-12.861L270.53,358.775z M272.347,362.348l6.856,13.679
		l-1.709,0.627L272.347,362.348z M290.348,374.425l31.957,13.594l-39.413-9.055l-0.632-0.266L290.348,374.425z M324.891,389.125
		l36.031,22.622l-75.336-31.651L324.891,389.125z M325.154,388.703C325.153,388.703,325.153,388.702,325.154,388.703l-0.351-0.304
		l-17.07-18.257l51.014,39.648L325.154,388.703z M297.941,362.535l-26.811-4.23l7.623-10.682L297.941,362.535z M240.552,329.842
		l-2.286,9.935l-3.184-21.647l5.348,11.591C240.454,329.773,240.511,329.8,240.552,329.842z M234.595,318.251l3.323,22.596
		l-6.313-0.629L234.595,318.251z M232.237,341.383l20.107,11.711l-7.181,9.815L232.237,341.383z M280.352,376.502l8.294-1.742
		l-6.954,3.673L280.352,376.502z"/>
	<path fill="#222221" d="M181.344,253.683l-1.614,2.341c-0.141,0.205-0.11,0.482,0.072,0.651l2.458,2.271l2.465,14.152
		c0.021,0.12,0.085,0.229,0.181,0.305l46.748,37.313c0.091,0.073,0.201,0.109,0.312,0.109c0.111,0,0.222-0.037,0.313-0.11
		c0.183-0.146,0.238-0.4,0.135-0.61l-9.858-20.035l-8.156-10.875c-0.067-0.089-0.162-0.153-0.269-0.183l-5.136-1.399l3.39-6.975
		c0.087-0.181,0.059-0.396-0.073-0.547l-33.953-38.952c-0.147-0.17-0.39-0.221-0.592-0.123c-0.202,0.097-0.316,0.316-0.277,0.537
		L181.344,253.683z M178.878,233.705l11.819,22.416l-8.218-3.326l-0.188,0.463l7.569,3.063l-8.954-0.242l1.376-1.996
		c0.074-0.108,0.104-0.241,0.081-0.37L178.878,233.705z M207.993,278.683l4.169,8.665l-15.566-12.914L207.993,278.683z
		 M183.17,258.524c-0.027-0.07-0.051-0.145-0.107-0.196l-1.884-1.741l9.731,0.263l-2.155,7.695L183.17,258.524z M189.023,265.321
		l7.392,1.251l-10.654,5.857L189.023,265.321z M196.751,266.957l-1.856,6.283l-8.783-0.434L196.751,266.957z M186.406,273.322
		l8.578,0.424l0.175,0.145l-0.003,0.007l0.02,0.008l15.525,12.877l-24.05-13.264L186.406,273.322z M212.723,288.468l16.382,18.935
		l-40.136-32.034L212.723,288.468z M195.428,273.465l-0.063-0.052l1.954-6.613l9.987,11.094L195.428,273.465z M197.229,266.204
		c-0.005-0.001-0.009,0.003-0.014,0.002c-0.004-0.001-0.006-0.006-0.01-0.007l-8.014-1.356l2.194-7.835l19.144,12.775
		L197.229,266.204z M191.428,256.434l-11.716-22.221l30.01,34.429L191.428,256.434z M183.454,259.974l5.122,5.122l-3.066,6.681
		L183.454,259.974z M230.24,307.95l-16.616-19.199l8.396,2.478L230.24,307.95z M221.707,290.591l0.014,0.027l-8.57-2.528
		l0.705-7.953L221.707,290.591z M213.379,279.844l-0.664,7.499l-4.252-8.839L213.379,279.844z M207.832,277.719
		c-0.001,0.003-0.001,0.006-0.002,0.01l-9.688-10.761l13.188,3.549L207.832,277.719z"/>
	<path fill="#222221" d="M225.149,315.831c0.058-0.199-0.013-0.412-0.178-0.537l-21.064-16.03c-0.081-0.063-0.18-0.098-0.281-0.103
		l-5.075-0.215l-0.935-4.319c-0.024-0.116-0.091-0.221-0.186-0.292l-19.682-14.979c-0.063-0.049-0.138-0.081-0.217-0.095
		l-41.361-7.201c-0.218-0.044-0.437,0.072-0.535,0.271s-0.053,0.439,0.111,0.59l22.234,20.361c0.037,0.033,0.078,0.061,0.122,0.082
		l4.967,2.375l0.296,4.768c0.007,0.121,0.059,0.235,0.145,0.321l18.715,18.809c0.094,0.095,0.222,0.147,0.354,0.147
		c0.014,0,0.028-0.001,0.042-0.002l42.088-3.594C224.918,316.172,225.092,316.029,225.149,315.831z M164.053,295.415l9.52-5.511
		l-9.257,9.737L164.053,295.415z M188.018,302.932l8.596-7.425l-3.787,11.652L188.018,302.932z M184.041,308.69l-8.139-18.35
		l11.388,12.595c0.012,0.013,0.028,0.017,0.042,0.026L184.041,308.69z M175.217,288.797l2.283-8.295l9.136,20.964l-11.383-12.588
		L175.217,288.797z M187.665,302.576l-9.401-21.571l18.274,13.906L187.665,302.576z M174.786,288.476l-35.514-14.861l37.793,6.58
		L174.786,288.476z M164.387,300.291l10.489-11.031l8.648,19.497l-18.893-8.221L164.387,300.291z M184.253,309.325l2.845-4.952
		l-3.852,12.018L184.253,309.325z M187.903,303.497l4.604,4.048l-9.318,10.665L187.903,303.497z M192.938,307.801l29.51,7.578
		l-39.036,3.334L192.938,307.801z M222.911,314.981l-29.478-7.57l9.925-7.26l0.068,0.003L222.911,314.981z M202.558,300.117
		l-8.671,6.35l4.231-6.538c0.002,0,0.003,0.001,0.004,0.001L202.558,300.117z M197.655,299.535c0.009,0.042,0.027,0.08,0.047,0.117
		l-3.838,5.928l3.062-9.419L197.655,299.535z M137.993,273.622l36.164,15.133l-15.428,3.801l-0.126-0.061L137.993,273.622z
		 M159.44,292.895l13.869-3.417l-9.516,5.509c-0.01-0.006-0.015-0.018-0.025-0.022L159.44,292.895z M165.588,301.498l18.15,7.897
		l-1.29,9.048L165.588,301.498z"/>
	<path fill="#222221" d="M221.903,343.377l1.426-15.867c0.013-0.141-0.035-0.28-0.131-0.384c-0.096-0.104-0.229-0.188-0.372-0.161
		l-37.359,0.339c-0.216,0.002-0.406,0.143-0.472,0.349s0.009,0.432,0.185,0.558l19.066,13.694c0.119,0.085,0.271,0.115,0.413,0.079
		l4.606-1.146l-0.519,3.977c-0.023,0.183,0.055,0.363,0.204,0.471l24.795,17.808c0.088,0.063,0.19,0.094,0.292,0.094
		c0.125,0,0.25-0.047,0.347-0.14c0.174-0.167,0.203-0.435,0.07-0.636L221.903,343.377z M210.353,340.239
		c0.011-0.081,0-0.162-0.027-0.236l3.479-4.179l-3.804,7.107L210.353,340.239z M215.112,333.51l-26.048-5.238l32.519-0.295
		L215.112,333.51z M222.072,328.216l-4.808,15.681l-1.811-10.021L222.072,328.216z M214.521,333.901l-10.486,6.619l-16.879-12.123
		L214.521,333.901z M216.899,344.685l-7.045-0.42l5.21-9.734L216.899,344.685z M217.089,345.198l14.028,14.774l-21.164-15.199
		L217.089,345.198z M217.65,345.063l3.394-1.174l10.248,15.541L217.65,345.063z M220.896,343.412l-3.31,1.145l4.536-14.798
		L220.896,343.412z M204.642,340.957l-0.17-0.122l9.506-6l-4.043,4.854c-0.065-0.011-0.133-0.016-0.199,0L204.642,340.957z"/>
	<path fill="#222221" d="M93.207,138.399c-0.146,0.061-0.255,0.188-0.293,0.341l-6.293,25.479c-0.026,0.104-0.018,0.213,0.023,0.312
		l1.705,4.111l-3.18,2.035c-0.108,0.069-0.185,0.177-0.216,0.301l-3.838,15.534c-0.049,0.199,0.028,0.407,0.194,0.527l24.066,17.233
		l71.406,63.355c0.094,0.083,0.213,0.126,0.332,0.126c0.092,0,0.185-0.025,0.267-0.077c0.188-0.119,0.275-0.348,0.213-0.562
		l-17.305-59.932c-0.035-0.121-0.114-0.224-0.221-0.289l-6.701-4.072l3.612-6.577c0.063-0.116,0.079-0.252,0.042-0.379
		l-6.775-23.463c-0.035-0.122-0.115-0.226-0.224-0.291l-56.367-33.683C93.519,138.349,93.353,138.337,93.207,138.399z
		 M160.244,241.658l-51.015-36.583l45.877,23.028L160.244,241.658z M109.445,204.624l30.424,9.674l13.904,12.577L109.445,204.624z
		 M107.103,203.354l23.638-14.156l8.849,24.485L107.103,203.354z M106.554,203.1l13.576-19.93l10.243,5.67L106.554,203.1z
		 M106.487,203.723l54.093,38.79l14.769,22.505l-68.998-61.214L106.487,203.723z M155.566,227.904l4.049-18.523l0.857,31.483
		L155.566,227.904z M159.405,207.724l0.034,0.119l-4.286,19.605l-14.674-13.273L159.405,207.724z M131.522,189.888l20.431,13.461
		l-12.015,9.826L131.522,189.888z M120.875,183.011l0.354-0.035l-0.406-0.138l27.792-9.632l-17.768,15.324L120.875,183.011z
		 M120.161,182.539l-25.75-42.491l54.458,32.542L120.161,182.539z M93.681,139.806l25.643,42.315l-31.506-18.573L93.681,139.806z
		 M87.631,164.3l0.06-0.244l28.297,16.681l-26.524-11.951c-0.005-0.047-0.012-0.094-0.031-0.139L87.631,164.3z M89.241,169.259
		c0.007-0.005,0.012-0.012,0.019-0.017l25.957,11.695l-28.902-9.806L89.241,169.259z M85.854,171.503l33.021,11.203l-36.683,3.617
		L85.854,171.503z M82.664,186.779l36.88-3.636l-13.758,20.197L82.664,186.779z M175.951,265.027l-14.94-22.756l-0.871-32.003
		L175.951,265.027z M158.914,207.363l-18.766,6.396l-0.031-0.086l12.415-10.152c0.008-0.007,0.012-0.017,0.019-0.025
		L158.914,207.363z M152.262,202.761c-0.028,0.051-0.042,0.105-0.051,0.16l-20.732-13.66l24.445,6.832L152.262,202.761z
		 M155.895,195.565l-24.504-6.849l18.036-15.55L155.895,195.565z"/>
	<path fill="#222221" d="M165.405,270.935c0.185,0,0.359-0.103,0.446-0.273c0.106-0.21,0.053-0.465-0.129-0.613l-50.27-41.107
		c-0.08-0.065-0.177-0.104-0.28-0.112l-5.349-0.389l-1.017-5.398c-0.021-0.114-0.083-0.218-0.172-0.292L71.083,191.64l-1.73-3.857
		l0.16-0.441c0.035-0.095,0.008-0.201-0.066-0.269c-0.074-0.069-0.182-0.085-0.274-0.043l-0.311,0.144l-39-29.688
		c-0.187-0.143-0.449-0.135-0.627,0.018c-0.179,0.153-0.227,0.41-0.116,0.617l35.309,65.68c0.023,0.043,0.052,0.083,0.087,0.117
		l8.957,8.958c0.073,0.073,0.166,0.121,0.268,0.139l4.999,0.871l1.278,5.429c0.021,0.091,0.067,0.174,0.133,0.239l12.379,12.379
		c0.063,0.063,0.142,0.108,0.228,0.131l72.523,18.855C165.321,270.93,165.364,270.935,165.405,270.935z M68.386,188.069l0.185,0.411
		l-3.836,10.609l-8.904-5.341l12.455-5.755L68.386,188.069z M70.562,192.506l0.002,0.002l6.108,23.087l-0.029,0.019l-11.466-16.148
		L70.562,192.506z M85.381,218.581l23.409,10.959l-13.332,9.413L85.381,218.581z M71.45,193.903l12.901,23.771l-7.236-1.78
		c0.073-0.062,0.112-0.156,0.087-0.25L71.45,193.903z M85.006,217.832l-13.174-24.273l35.005,29L85.006,217.832z M64.616,199.6
		l0.002,22.366l-8.881-27.692L64.616,199.6z M55.07,193.832l8.307,25.903l-30.643-57.002L55.07,193.832z M65.17,223.07l-0.052-0.097
		l-0.002-22.731l11.107,15.644L65.17,223.07z M76.559,216.265c0.006,0.002,0.009,0.009,0.015,0.011l7.277,1.789l-17.492,4.829
		L76.559,216.265z M94.85,238.848l-15.188-6.118l5.212-14.049L94.85,238.848z M95.547,239.681l65.567,29.122l-67.891-17.651
		L95.547,239.681z M95.968,239.321l19.507-9.07l47.469,38.817L95.968,239.321z M114.942,229.815l0.103,0.084l-17.27,8.03
		l11.655-8.229c0.073-0.051,0.113-0.138,0.105-0.227c-0.002-0.02-0.013-0.035-0.02-0.053L114.942,229.815z M108.912,229.004
		c0.004,0.022,0.024,0.035,0.031,0.056l-21.989-10.294l20.718,4.485l0.185,0.153L108.912,229.004z M70.212,192.14l-4.569,5.906
		l3.222-8.91L70.212,192.14z M55.378,193.405l-24.144-33.617l36.6,27.861L55.378,193.405z M65.626,223.616l18.566-5.126
		l-10.24,13.453L65.626,223.616z M74.444,232.123l9.578-12.583l-4.914,13.244c-0.019,0.052-0.009,0.104,0.005,0.153L74.444,232.123z
		 M79.636,233.337c-0.009-0.04-0.041-0.066-0.059-0.103l14.471,5.831l-13.084-0.11l-0.007-0.007L79.636,233.337z M81.468,239.459
		l13.591,0.114l-2.271,11.207L81.468,239.459z"/>
	<path fill="#222221" d="M119.484,269.253c-0.063-0.059-0.141-0.099-0.225-0.119l-15.84-3.707c-0.192-0.045-0.395,0.028-0.514,0.187
		c-0.119,0.159-0.133,0.373-0.036,0.546l17.006,30.283c0.052,0.092,0.131,0.165,0.227,0.209l18.355,8.447
		c0.084,0.039,0.178,0.055,0.271,0.042l3.361-0.415l2.266,3.02c0.05,0.066,0.115,0.12,0.191,0.154l31.074,14.299
		c0.067,0.031,0.139,0.046,0.208,0.046c0.163,0,0.321-0.08,0.417-0.223c0.137-0.205,0.104-0.479-0.078-0.646L119.484,269.253z
		 M127.139,289.416l-7.076-18.13l13.709,18.573L127.139,289.416z M127.06,289.912l6.187,0.413l-11.804,5.109L127.06,289.912z
		 M134.136,290.485l4.035,13.381l-16.938-7.796L134.136,290.485z M147.47,302.047l24.867,17.54l-27.149-12.493L147.47,302.047z
		 M147.532,301.48l-13.053-11.506l-12.806-17.35l49.559,45.571L147.532,301.48z M146.904,301.592l-4.083,1.719l-7.405-11.844
		L146.904,301.592z M119.141,270.296l7.154,18.334l-21.86-21.938l14.469,3.386L119.141,270.296z M105.075,268.045l21.534,21.608
		l-6.055,5.954L105.075,268.045z M138.772,304.128l-3.699-12.266l7.42,11.867c-0.075-0.029-0.156-0.045-0.239-0.032L138.772,304.128
		z M142.715,303.893c-0.011-0.015-0.03-0.021-0.042-0.033c0.047,0.01,0.097,0.014,0.146-0.007l4.057-1.708l-2.057,4.552
		L142.715,303.893z"/>
	<path fill="#222221" d="M242.835,321.024c0.049,0.093,0.125,0.168,0.219,0.216l41.266,20.719c0.072,0.035,0.148,0.053,0.225,0.053
		c0.169,0,0.334-0.086,0.427-0.24c0.136-0.223,0.077-0.512-0.133-0.664l-49.014-35.541c-0.188-0.139-0.446-0.126-0.621,0.026
		c-0.176,0.151-0.224,0.404-0.116,0.609L242.835,321.024z M237.207,308.097l8.125,9.492l-1.853,2.51L237.207,308.097z
		 M245.714,317.915l26.115,16.653l-28.023-14.069L245.714,317.915z M272.175,334.742l0.248-0.389l-26.608-16.969l-7.54-8.808
		l40.992,29.726L272.175,334.742z"/>
	<path fill="#222221" d="M69.854,179.711c0.091,0.072,0.201,0.109,0.312,0.109c0.087,0,0.174-0.022,0.252-0.068l5.936-3.474
		c0.124-0.072,0.21-0.194,0.238-0.334l5.379-27.206c0.051-0.259-0.108-0.514-0.364-0.581l-43.882-11.491l-20.193-4.098
		c-0.218-0.042-0.439,0.062-0.542,0.258c-0.103,0.197-0.064,0.438,0.096,0.593l25.893,24.902L69.854,179.711z M42.957,156.917
		l0.864-7.922l15.508,6.225l-16.256,1.809L42.957,156.917z M38.082,142.172l3.66,12.84l-5.984-11.526L38.082,142.172z
		 M35.913,142.824l1.649-4.225l0.404,3.065L35.913,142.824z M38.825,142.954l4.524,5.761l-0.797,7.314L38.825,142.954z
		 M60.356,155.094l-15.144-6.079l34.638-0.119L60.356,155.094z M43.978,148.519l-0.214-0.086l-4.937-6.287l38.949,6.256
		L43.978,148.519z M38.459,141.581l-0.503-3.821l36.943,9.674L38.459,141.581z M35.297,143.025l-15.715-9.02l17.824,3.616
		L35.297,143.025z M35.237,143.567L41.38,155.4l-21.417-20.6L35.237,143.567z M43.542,157.48l16.645-1.851l9.189,22.425
		l-25.741-20.484L43.542,157.48z M70.208,178.716l-0.03-0.024l-8.893-21.702l14.291,18.584L70.208,178.716z M75.76,174.993
		L60.762,155.49l20.118-6.396L75.76,174.993z"/>
	<path fill="#222221" d="M30.494,125.548l4.338-3.874l3.875,5.631c0.073,0.106,0.185,0.18,0.311,0.206l47.369,9.77
		c0.034,0.007,0.068,0.01,0.102,0.01c0.204,0,0.393-0.126,0.467-0.324c0.087-0.23-0.007-0.49-0.221-0.611L56.86,119.4L41.369,73.933
		c-0.04-0.119-0.124-0.218-0.233-0.277L22.652,63.549L6.536,36.444c-0.12-0.203-0.366-0.294-0.589-0.218
		c-0.224,0.075-0.364,0.296-0.337,0.531l6.135,53.576c0.012,0.109,0.061,0.212,0.138,0.292l3.999,4.111l-3.019,4.245
		c-0.071,0.101-0.103,0.224-0.089,0.346l2.629,22.964c0.024,0.215,0.184,0.39,0.396,0.433l14.262,2.941
		C30.216,125.698,30.376,125.654,30.494,125.548z M40.493,74.465l0.018,0.05l-5.528,18.703L22.205,79.506L40.493,74.465z
		 M42.581,117.019l40.033,18.462l-43.094-8.888L42.581,117.019z M42.585,116.452L32.107,99.578l23.405,19.703L42.585,116.452z
		 M31.256,98.208l-0.116-0.187l3.939-3.939l18.752,23.129L31.256,98.208z M21.843,79.851l12.708,13.636l-17.61,0.926
		c-0.012-0.018-0.022-0.037-0.036-0.053L21.843,79.851z M34.461,93.992l-3.814,3.815c-0.051,0.051-0.066,0.119-0.063,0.188
		l-12.396-3.147L34.461,93.992z M29.93,124.616l-13.481-2.781l14.338-22.552L29.93,124.616z M35.335,120.639
		c-0.082-0.118-0.21-0.196-0.353-0.213c-0.142-0.019-0.285,0.028-0.393,0.124l-4.147,3.703l0.8-23.647l3.763,19.527l0.491-0.095
		l-3.927-20.378l10.508,16.922l-6.61,3.62l0.24,0.438L42,117.194l-2.867,8.965L35.335,120.639z M80.398,133.909l-35.777-16.5
		l11.351,2.483l0.003,0.01c0.04,0.116,0.12,0.213,0.227,0.274L80.398,133.909z M55.481,118.452L35.375,93.654l5.414-18.319
		L55.481,118.452z M39.887,74.113l-17.884,4.93l0.514-14.429L39.887,74.113z M22.027,64.336L21.538,78.07L8.382,41.504l13.48,22.673
		C21.902,64.244,21.962,64.294,22.027,64.336z M6.869,38.959l0.167,0.281l14.42,40.082l-8.809,10.107L6.869,38.959z M12.746,90.076
		l8.349-9.58l-4.58,13.457L12.746,90.076z M16.895,95.036l12.501,3.173l-15.305,0.769L16.895,95.036z M13.799,99.493l16.798-0.843
		l-14.316,22.518L13.799,99.493z"/>
	<path fill="#222221" d="M28.301,54.119l19.804,11.363l11.267,44.799c0.034,0.134,0.121,0.248,0.242,0.315l25.051,13.958
		c0.05,0.028,0.105,0.047,0.163,0.057l10.103,1.646l5.567,7.075c0.041,0.052,0.092,0.096,0.15,0.128l35.043,19.524
		c0.076,0.042,0.16,0.063,0.243,0.063c0.126,0,0.251-0.048,0.347-0.14c0.158-0.152,0.198-0.391,0.098-0.587l-38.752-76.04
		c-0.064-0.126-0.179-0.219-0.316-0.256l-5.409-1.45l2.041-5.148c0.053-0.133,0.046-0.283-0.02-0.411l-7.682-15.073
		c-0.041-0.081-0.104-0.149-0.18-0.197L1.729,1.011C1.538,0.891,1.29,0.914,1.125,1.068C0.959,1.22,0.916,1.466,1.02,1.665
		l27.086,52.25C28.15,54.001,28.218,54.071,28.301,54.119z M3.309,3.907l26.878,30.513c0.015,0.017,0.032,0.032,0.05,0.044
		l0.417,0.274l-2.198,17.679L3.309,3.907z M52.529,49.104l-23.552,4.25l-0.051-0.029l-0.064-0.124l2.258-18.157L52.529,49.104z
		 M53.298,49.742l19.769,21.639l-23.979-6.64L53.298,49.742z M52.83,49.558l-4.224,15.049l-0.032-0.009L29.651,53.741L52.83,49.558z
		 M49.08,65.257l24.571,6.804l16.516,40.91L49.13,65.457L49.08,65.257z M94.719,125.209l-9.304-1.516l5.145-9.706L94.719,125.209z
		 M95.239,125.175l-4.32-11.658l13.038-5.314L95.239,125.175z M104.72,107.613l-6.587-28.136l34.937,68.554L104.72,107.613z
		 M104.195,107.566l-13.269,5.408l6.288-35.229L104.195,107.566z M74.241,72.185l16.069,3.08l0.04,36.822L74.241,72.185z
		 M53.836,49.601l31.129,5.077L73.837,71.483L53.836,49.601z M53.272,49.003L32.83,35.57l50.984,18.414L53.272,49.003z
		 M31.033,34.389l-0.494-0.324L3.361,3.211l80.199,50.149L31.033,34.389z M49.401,66.536l40.144,46.479l-28.979-3.033l-0.277-0.155
		L49.401,66.536z M61.676,110.601l28.53,2.986l-5.283,9.967L61.676,110.601z M95.624,125.521l8.407-16.368l-3.258,22.913
		L95.624,125.521z M101.221,132.635l-0.02-0.025l3.445-24.232l30.046,42.835l0.05,0.098L101.221,132.635z M96.836,76.933
		l0.011,0.021l-6,33.617l-0.038-35.4c0.067,0.108,0.167,0.191,0.291,0.225L96.836,76.933z M90.765,74.728
		c-0.021,0.052-0.025,0.107-0.027,0.162c-0.035-0.037-0.078-0.067-0.131-0.077l-15.222-2.917l17.437-2.355L90.765,74.728z
		 M92.922,69.286l-0.006-0.045l0.013,0.026L92.922,69.286z M92.813,69.038L74.41,71.524l11.115-16.785L92.813,69.038z"/>
</g>
</svg>
