<?xml version="1.0" encoding="utf-8"?>
<!-- Generator: Adobe Illustrator 16.0.0, SVG Export Plug-In . SVG Version: 6.00 Build 0)  -->
<!DOCTYPE svg PUBLIC "-//W3C//DTD SVG 1.1//EN" "http://www.w3.org/Graphics/SVG/1.1/DTD/svg11.dtd">
<svg version="1.1" id="Capa_1" xmlns="http://www.w3.org/2000/svg" xmlns:xlink="http://www.w3.org/1999/xlink" x="0px" y="0px"
	 width="91.563px" height="152.394px" viewBox="-84.526 -130.718 91.563 152.394"
	 enable-background="new -84.526 -130.718 91.563 152.394" xml:space="preserve">
<g>
	<g>
		<path fill="#FFFAFA" d="M6.297,21.246L-6.009-21.067l-7.076-8.563c-0.022-0.026-0.039-0.058-0.048-0.091l-5.546-19.459
			l-6.987-4.587c-0.062-0.041-0.102-0.106-0.11-0.179l-2.82-23.476l-55.602-52.614l0.344-0.363l55.667,52.676
			c0.042,0.04,0.069,0.094,0.076,0.152l2.817,23.45l6.968,4.575c0.05,0.033,0.086,0.083,0.103,0.141l5.557,19.499l7.076,8.562
			c0.022,0.026,0.038,0.057,0.048,0.089l12.32,42.362L6.297,21.246z"/>
	</g>
	<g>
		<path fill="#FFFAFA" d="M-14.475-72.236l-13.97-5.071c-0.07-0.025-0.126-0.081-0.15-0.151c-0.025-0.07-0.018-0.148,0.021-0.212
			l6.425-10.726l0.43,0.257l-6.27,10.466l13.685,4.968L-14.475-72.236z"/>
	</g>
	<g>
		<path fill="#FFFAFA" d="M-20.872-24.397c-0.044,0-0.089-0.012-0.129-0.036c-0.064-0.039-0.107-0.104-0.118-0.178l-4.656-29.328
			c-0.012-0.075,0.012-0.152,0.063-0.208c0.052-0.056,0.127-0.087,0.202-0.081l20.668,1.459c0.123,0.009,0.222,0.106,0.231,0.229
			c0.011,0.123-0.07,0.235-0.19,0.264l-13.844,3.335l-1.937,23.808L-13.029-30l0.271,0.42l-7.979,5.143
			C-20.778-24.41-20.825-24.397-20.872-24.397z M-25.233-53.706l4.28,26.959l1.823-22.415c0.009-0.107,0.086-0.197,0.19-0.223
			l12.448-2.999L-25.233-53.706z"/>
	</g>
	<g>
		<path fill="#FFFAFA" d="M-20.624-19.675c-0.092,0-0.177-0.05-0.221-0.133c-0.048-0.089-0.036-0.198,0.027-0.276l7.704-9.83
			l8.018-22.688c0.04-0.115,0.154-0.188,0.281-0.162c0.121,0.022,0.208,0.13,0.204,0.253L-5.533-21.18
			c-0.004,0.126-0.101,0.23-0.227,0.242l-14.841,1.262C-20.609-19.676-20.616-19.675-20.624-19.675z M-5.157-50.928l-7.5,21.222
			c-0.01,0.027-0.023,0.053-0.042,0.075l-7.848,9.569l14.521-1.354L-5.157-50.928z"/>
	</g>
	<g>
		<path fill="#FFFAFA" d="M-25.529-53.727c-0.031,0-0.063-0.006-0.094-0.018c-0.014-0.006-0.028-0.013-0.041-0.021L-46.098-66.38
			l0.262-0.426l18.553,11.452l-17.654-17.382c-0.063-0.063-0.089-0.154-0.066-0.24c0.022-0.086,0.089-0.154,0.174-0.179
			l16.402-4.628c0.083-0.023,0.171-0.004,0.233,0.053l12.954,11.427c0.102,0.089,0.113,0.244,0.027,0.348l-9.047,10.848
			l13.804-9.051l0.273,0.418l-15.205,9.97c-0.013,0.009-0.026,0.017-0.041,0.023C-25.461-53.734-25.511-53.727-25.529-53.727z
			 M-44.28-72.791l18.732,18.445l9.794-11.743l-12.67-11.176L-44.28-72.791z"/>
	</g>
	<g>
		
			<rect x="-39.764" y="-87.679" transform="matrix(0.0937 0.9956 -0.9956 0.0937 -111.949 -29.9691)" fill="#FFFAFA" width="0.5" height="22.41"/>
	</g>
	<g>
		<path fill="#FFFAFA" d="M6.537,21.675c-0.165,0-0.323-0.082-0.418-0.227l-27.033-41.231c-0.046-0.07-0.073-0.15-0.08-0.233
			l-0.367-4.475l-25.034-41.846c-0.061-0.1-0.083-0.218-0.065-0.333l0.841-5.428l-4.913-2.149c-0.095-0.041-0.174-0.11-0.228-0.199
			l-33.693-55.513c-0.121-0.201-0.087-0.459,0.083-0.621c0.171-0.163,0.429-0.184,0.625-0.052l62.092,41.95
			c0.073,0.05,0.133,0.118,0.171,0.199l7.545,15.797c0.04,0.083,0.056,0.177,0.046,0.27l-0.604,5.545l4.423,2.486
			c0.09,0.051,0.162,0.127,0.206,0.221l5.459,11.432c0.021,0.044,0.035,0.091,0.043,0.139L7.031,21.099
			c0.036,0.233-0.095,0.459-0.314,0.543C6.658,21.666,6.596,21.675,6.537,21.675z M-20.008-20.224L5.69,18.972L-5.343-52.369
			l-5.359-11.222l-4.573-2.571c-0.175-0.098-0.273-0.291-0.252-0.49l0.625-5.731l-7.425-15.546l-60.087-40.596L-49.988-75.1
			l5.12,2.24c0.208,0.091,0.329,0.311,0.294,0.535l-0.872,5.63l25.002,41.792c0.04,0.066,0.063,0.14,0.069,0.216L-20.008-20.224z"/>
	</g>
</g>
</svg>
