<?xml version="1.0" encoding="utf-8"?>
<!-- Generator: Adobe Illustrator 16.0.0, SVG Export Plug-In . SVG Version: 6.00 Build 0)  -->
<!DOCTYPE svg PUBLIC "-//W3C//DTD SVG 1.1//EN" "http://www.w3.org/Graphics/SVG/1.1/DTD/svg11.dtd">
<svg version="1.1" id="Capa_1" xmlns="http://www.w3.org/2000/svg" xmlns:xlink="http://www.w3.org/1999/xlink" x="0px" y="0px"
	 width="33.304px" height="112.074px" viewBox="12.118 -36.014 33.304 112.074"
	 enable-background="new 12.118 -36.014 33.304 112.074" xml:space="preserve">
<g>
	<g>
		<path fill="#FFFAFA" d="M37.783,75.654l-9.786-32.221c-0.007-0.023-0.011-0.047-0.011-0.07l-0.063-6.646l-6.82,1.451
			c-0.087,0.016-0.188-0.016-0.246-0.088c-0.06-0.074-0.072-0.174-0.033-0.26l9.16-20.382L44.68-35.582l0.482,0.134L30.452,17.607
			L21.48,37.576l6.638-1.412c0.07-0.014,0.148,0.002,0.208,0.051c0.059,0.047,0.093,0.117,0.094,0.191l0.066,6.916l9.775,32.186
			L37.783,75.654z"/>
	</g>
	<g>
		<path fill="#FFFAFA" d="M30.211,17.79c-0.025,0-0.052-0.004-0.077-0.012l-12.524-4.083l0.154-0.476l10.857,3.54L15.915,8.098
			l0.281-0.413l14.155,9.648c0.103,0.07,0.139,0.205,0.084,0.317C30.392,17.738,30.303,17.79,30.211,17.79z"/>
	</g>
	<g>
		<path fill="#FFFAFA" d="M12.618,43.81c-0.088,0-0.174-0.047-0.219-0.129c-0.063-0.113-0.028-0.256,0.08-0.328l8.274-5.533
			l-6.862-20.671c-0.025-0.077-0.012-0.163,0.037-0.228c0.048-0.065,0.121-0.109,0.207-0.101l16.02,0.468l8.356-4.164
			c0.094-0.046,0.209-0.03,0.285,0.044c0.076,0.074,0.098,0.188,0.054,0.284L28.411,36.283c-0.052,0.111-0.175,0.168-0.293,0.137
			c-0.008-0.002-0.016-0.006-0.023-0.008l0.186,0.414l-15.56,6.963C12.687,43.804,12.652,43.81,12.618,43.81z M14.478,17.331
			l6.81,20.513c0.035,0.107-0.005,0.225-0.099,0.287l-5.973,3.994l12.825-5.74c-0.074-0.051-0.117-0.139-0.107-0.232l1.929-18.372
			L14.478,17.331z M30.328,17.761l0.04,0.004l-1.776,16.92l9.51-20.798L30.328,17.761z"/>
	</g>
	<g>
		<polygon fill="#FFFAFA" points="41.212,46.359 28.184,43.605 12.621,43.81 12.615,43.31 28.233,43.109 41.315,45.869 		"/>
	</g>
	<g>
		<path fill="#FFFAFA" d="M28.504,43.607c-0.109,0-0.208-0.07-0.24-0.178c-0.035-0.121,0.024-0.25,0.139-0.301l11.285-4.992
			l-11.55-1.48l0.064-0.496l12.438,1.594c0.111,0.016,0.199,0.102,0.215,0.213c0.017,0.111-0.043,0.219-0.146,0.264l-10.356,4.582
			l7.397-1.166l0.078,0.494l-9.286,1.465C28.529,43.607,28.516,43.607,28.504,43.607z"/>
	</g>
	<g>
		<path fill="#FFFAFA" d="M38.022,76.08c-0.15,0-0.295-0.066-0.392-0.189l-25.404-32.02c-0.076-0.096-0.114-0.217-0.107-0.338
			l1.511-26.491c0.007-0.122,0.058-0.236,0.143-0.322l3.352-3.404l-1.548-5.283c-0.042-0.142-0.019-0.294,0.063-0.417l28.866-43.406
			c0.129-0.193,0.377-0.271,0.591-0.191c0.218,0.081,0.351,0.302,0.321,0.532L39.126,13.36l1.98,24.603
			c0.01,0.119-0.023,0.236-0.093,0.334l-2.592,3.576l3.228,3.924c0.086,0.104,0.126,0.238,0.111,0.371l-3.241,29.467
			c-0.022,0.203-0.164,0.371-0.358,0.426C38.115,76.074,38.068,76.08,38.022,76.08z M13.128,43.4l24.53,30.918l3.085-28.049
			l-3.339-4.059c-0.145-0.176-0.152-0.426-0.02-0.611l2.71-3.74l-1.97-24.471c-0.003-0.035-0.002-0.069,0.002-0.104l6.025-46.738
			L16.6,7.975l1.565,5.342c0.052,0.174,0.004,0.362-0.123,0.491l-3.426,3.479L13.128,43.4z"/>
	</g>
</g>
</svg>
