<?xml version="1.0" encoding="utf-8"?>
<!-- Generator: Adobe Illustrator 16.0.0, SVG Export Plug-In . SVG Version: 6.00 Build 0)  -->
<!DOCTYPE svg PUBLIC "-//W3C//DTD SVG 1.1//EN" "http://www.w3.org/Graphics/SVG/1.1/DTD/svg11.dtd">
<svg version="1.1" id="Capa_1" xmlns="http://www.w3.org/2000/svg" xmlns:xlink="http://www.w3.org/1999/xlink" x="0px" y="0px"
	 width="66.627px" height="86.483px" viewBox="53.58 -82.862 66.627 86.483" enable-background="new 53.58 -82.862 66.627 86.483"
	 xml:space="preserve">
<g>
	<g>
		<path fill="#FFFAFA" d="M54.283,3.266l-0.406-0.29l29.661-41.595l11.546-12.974l0.519-7.243c0.004-0.061,0.03-0.117,0.073-0.16
			l23.855-23.544l0.352,0.355L96.094-58.706l-0.518,7.233c-0.004,0.055-0.025,0.107-0.063,0.148L83.927-38.308L54.283,3.266z"/>
	</g>
	<g>
		<path fill="#FFFAFA" d="M95.327-51.24c-0.022,0-0.044-0.003-0.066-0.009c-0.073-0.021-0.134-0.073-0.163-0.143l-5.984-14.012
			c-0.048-0.111-0.01-0.239,0.091-0.306c0.101-0.066,0.234-0.052,0.317,0.034l6.395,6.566l19.919-7.663
			c0.114-0.043,0.25,0.003,0.31,0.114c0.06,0.11,0.029,0.248-0.072,0.321L95.474-51.289C95.431-51.257,95.38-51.24,95.327-51.24z
			 M90.099-64.366l5.334,12.489l18.822-13.751l-18.314,7.045c-0.094,0.037-0.199,0.013-0.269-0.059L90.099-64.366z"/>
	</g>
	<g>
		<path fill="#FFFAFA" d="M83.741-38.224c-0.035,0-0.07-0.007-0.104-0.022l-5.766-2.64l0.209-0.455l5.186,2.375l-1.688-4.065
			c-0.048-0.113-0.005-0.244,0.099-0.308l11.93-7.38l-12.729,3.772l-0.143-0.479l14.521-4.303c0.12-0.036,0.249,0.023,0.3,0.138
			s0.01,0.249-0.097,0.314l-13.338,8.251l1.851,4.457c0.04,0.095,0.018,0.204-0.057,0.275
			C83.867-38.248,83.804-38.224,83.741-38.224z"/>
	</g>
	<g>
		<path fill="#FFFAFA" d="M54.08,3.621c-0.1,0-0.2-0.03-0.287-0.09c-0.208-0.146-0.273-0.424-0.152-0.647l23.896-44.234
			c0.034-0.064,0.083-0.12,0.142-0.164l3.031-2.251l-0.399-3.363c-0.012-0.092,0.004-0.186,0.043-0.271l8.537-18.314
			c0.045-0.095,0.118-0.174,0.21-0.226l30.364-16.859c0.174-0.097,0.388-0.081,0.546,0.039c0.157,0.12,0.229,0.322,0.184,0.515
			l-3.782,15.822c-0.02,0.08-0.058,0.154-0.112,0.216L54.454,3.453C54.355,3.563,54.219,3.621,54.08,3.621z M78.362-40.778
			L56.57-0.438l58.897-66.34l3.489-14.595L89.727-65.144l-8.408,18.039l0.416,3.509c0.021,0.178-0.054,0.354-0.198,0.46
			L78.362-40.778z"/>
	</g>
</g>
</svg>
