<?xml version="1.0" encoding="utf-8"?>
<!-- Generator: Adobe Illustrator 16.0.0, SVG Export Plug-In . SVG Version: 6.00 Build 0)  -->
<!DOCTYPE svg PUBLIC "-//W3C//DTD SVG 1.1//EN" "http://www.w3.org/Graphics/SVG/1.1/DTD/svg11.dtd">
<svg version="1.1" id="Capa_1" xmlns="http://www.w3.org/2000/svg" xmlns:xlink="http://www.w3.org/1999/xlink" x="0px" y="0px"
	 width="71.06px" height="41.292px" viewBox="0 0 71.06 41.292" enable-background="new 0 0 71.06 41.292" xml:space="preserve">
<g>
	<g>
		
			<rect x="50.405" y="12.249" transform="matrix(-0.8558 -0.5173 0.5173 -0.8558 91.4194 50.4825)" fill="#FFFAFA" width="4.683" height="0.499"/>
	</g>
	<g>
		<g>
			<path fill="#FFFAFA" d="M26.339,20.34c-0.022,0-0.047-0.004-0.069-0.01L1.423,13.033l0.142-0.479l24.744,7.267l15.609-8.824
				c0.037-0.021,0.095-0.031,0.125-0.032l8.484,0.073l0.479-2.974c0.017-0.087,0.074-0.16,0.156-0.192l19.305-7.604l0.185,0.465
				L51.479,8.285l-0.492,3.045c-0.021,0.122-0.123,0.188-0.248,0.21l-8.633-0.075l-15.644,8.843
				C26.424,20.329,26.382,20.34,26.339,20.34z"/>
		</g>
		<g>
			<path fill="#FFFAFA" d="M18.953,40.477l-0.336-0.371l31.665-28.738L35.752,5.28c-0.117-0.049-0.18-0.181-0.143-0.303
				c0.039-0.123,0.156-0.201,0.289-0.172L51.304,7.86c0.069,0.014,0.131,0.058,0.168,0.12l3.106,5.377l-0.434,0.25l-3.051-5.279
				L38.23,5.776l12.604,5.283c0.08,0.033,0.136,0.104,0.15,0.188c0.014,0.084-0.016,0.17-0.078,0.228L18.953,40.477z"/>
		</g>
		<g>
			<path fill="#FFFAFA" d="M26.55,20.224l-0.422-0.268l9.511-15.041c0.039-0.064,0.106-0.106,0.182-0.115
				c0.086-0.007,0.152,0.019,0.205,0.071l6.19,6.165l-0.354,0.354l-5.969-5.945L26.55,20.224z"/>
		</g>
		<g>
			<path fill="#FFFAFA" d="M18.388,41.042c-0.042,0-0.085-0.012-0.124-0.033c-0.107-0.061-0.153-0.191-0.109-0.307l7.823-20.37
				L0.496,19.849l0.01-0.5l25.84,0.491c0.08,0.001,0.156,0.043,0.201,0.11c0.046,0.068,0.057,0.154,0.026,0.23l-7.367,19.18
				l22.337-28.131l0.392,0.311L18.584,40.946C18.535,41.007,18.462,41.042,18.388,41.042z"/>
		</g>
		<g>
			<path fill="#FFFAFA" d="M18.388,41.292c-0.144,0-0.283-0.062-0.383-0.178L0.119,19.922c-0.093-0.109-0.134-0.253-0.113-0.395
				l0.993-6.806c0.03-0.204,0.184-0.369,0.384-0.415l33.493-7.631l35.619-4.67c0.228-0.031,0.437,0.091,0.523,0.295
				c0.09,0.204,0.032,0.442-0.138,0.584L55.068,14.096L18.687,41.192C18.597,41.257,18.493,41.292,18.388,41.292z M1.028,19.449
				L18.467,40.11l35.982-26.798L68.92,1.22L35.051,5.658L1.939,13.205L1.028,19.449z"/>
		</g>
	</g>
</g>
</svg>
