<?xml version="1.0" encoding="utf-8"?>
<!-- Generator: Adobe Illustrator 16.0.0, SVG Export Plug-In . SVG Version: 6.00 Build 0)  -->
<!DOCTYPE svg PUBLIC "-//W3C//DTD SVG 1.1//EN" "http://www.w3.org/Graphics/SVG/1.1/DTD/svg11.dtd">
<svg version="1.1" id="Capa_1" xmlns="http://www.w3.org/2000/svg" xmlns:xlink="http://www.w3.org/1999/xlink" x="0px" y="0px"
	 width="61.396px" height="49.941px" viewBox="16.866 -78.436 61.396 49.941" enable-background="new 16.866 -78.436 61.396 49.941"
	 xml:space="preserve">
<g>
	<g>
		<path fill="#222221" d="M77.63-28.781L38.01-53.262c-0.041-0.024-0.072-0.061-0.094-0.103l-4.953-10.094l-15.666-4.403
			l0.135-0.481l15.773,4.434c0.068,0.02,0.126,0.067,0.157,0.13l4.971,10.13l39.559,24.442L77.63-28.781z"/>
	</g>
	<g>
		
			<rect x="47.298" y="-64.619" transform="matrix(0.1676 0.9859 -0.9859 0.1676 -14.717 -92.7249)" fill="#222221" width="0.501" height="19.084"/>
	</g>
	<g>
		<path fill="#222221" d="M38.141-53.225c-0.025,0-0.051-0.004-0.076-0.013c-0.123-0.039-0.195-0.164-0.168-0.289l4.885-22.891
			l-9.441,12.896c-0.017,0.022-0.036,0.042-0.059,0.058l-3.632,2.539l-0.287-0.41l3.599-2.515l10.107-13.805
			c0.068-0.096,0.195-0.13,0.305-0.081c0.107,0.048,0.166,0.165,0.141,0.28l-4.625,21.674l2.393-5.403l0.457,0.201l-3.369,7.609
			C38.329-53.28,38.239-53.225,38.141-53.225z"/>
	</g>
	<g>
		<path fill="#222221" d="M36.622-34.597c-0.125,0-0.232-0.094-0.248-0.221l-3.483-28.822l0.496-0.06l3.188,26.37l1.318-16.166
			l0.498,0.041l-1.52,18.628c-0.012,0.128-0.117,0.228-0.244,0.229C36.626-34.597,36.624-34.597,36.622-34.597z"/>
	</g>
	<g>
		<path fill="#222221" d="M77.76-28.494c-0.021,0-0.045-0.001-0.068-0.005l-41.396-5.775c-0.199-0.027-0.363-0.174-0.414-0.369
			l-6.805-26.157l-11.96-6.868c-0.168-0.096-0.265-0.281-0.249-0.474c0.015-0.193,0.141-0.359,0.321-0.428l26-9.833
			c0.164-0.061,0.348-0.035,0.484,0.073c0.137,0.106,0.209,0.277,0.189,0.45l-1.807,16.427l14.273,3.869
			c0.105,0.028,0.199,0.092,0.266,0.178l21.563,28.109c0.125,0.16,0.139,0.38,0.035,0.555C78.102-28.587,77.936-28.494,77.76-28.494
			z M36.764-35.219l39.857,5.562L55.903-56.664L41.38-60.602c-0.236-0.064-0.393-0.292-0.365-0.537l1.766-16.041l-24.248,9.17
			l11.224,6.446c0.116,0.066,0.201,0.178,0.235,0.308L36.764-35.219z"/>
	</g>
</g>
</svg>
