<?xml version="1.0" encoding="utf-8"?>
<!-- Generator: Adobe Illustrator 16.0.0, SVG Export Plug-In . SVG Version: 6.00 Build 0)  -->
<!DOCTYPE svg PUBLIC "-//W3C//DTD SVG 1.1//EN" "http://www.w3.org/Graphics/SVG/1.1/DTD/svg11.dtd">
<svg version="1.1" id="Capa_1" xmlns="http://www.w3.org/2000/svg" xmlns:xlink="http://www.w3.org/1999/xlink" x="0px" y="0px"
	 width="34.829px" height="83.668px" viewBox="0 0 34.829 83.668" enable-background="new 0 0 34.829 83.668" xml:space="preserve">
<g>
	<g>
		<path fill="#FDFAFB" d="M31.949,83.264l-9.37-22.583c-0.02-0.045-0.024-0.095-0.016-0.142l2.1-11.074L0.277,0.612l0.447-0.224
			l24.424,48.928c0.024,0.05,0.032,0.105,0.022,0.158l-2.102,11.084l9.341,22.514L31.949,83.264z"/>
	</g>
	<g>
		
			<rect x="18.147" y="44.074" transform="matrix(0.1954 0.9807 -0.9807 0.1954 64.5553 22.7767)" fill="#FDFAFB" width="0.5" height="13.312"/>
	</g>
	<g>
		<path fill="#FDFAFB" d="M27.229,60.983L22.8,60.835c-0.032-0.001-0.064-0.009-0.095-0.022l-7.072-3.206
			c-0.077-0.035-0.132-0.107-0.144-0.192c-0.013-0.084,0.019-0.168,0.083-0.225l7.333-6.345l-5.121,2.866l-0.244-0.438l7.262-4.063
			c0.11-0.063,0.253-0.031,0.327,0.074c0.073,0.105,0.056,0.248-0.041,0.332l-8.893,7.695l6.671,3.024l4.38,0.146L27.229,60.983z"/>
	</g>
	<g>
		<path fill="#FDFAFB" d="M23.006,60.738l-0.395-0.307L33.35,46.702l-8.342,2.962l-0.168-0.471l9.152-3.25
			c0.103-0.037,0.222-0.002,0.287,0.09c0.064,0.09,0.063,0.212-0.006,0.299L23.006,60.738z"/>
	</g>
	<g>
		<path fill="#FDFAFB" d="M32.179,83.668c-0.164,0-0.323-0.081-0.418-0.225L14.987,57.939c-0.101-0.153-0.109-0.351-0.021-0.512
			l1.908-3.529l-4.712-0.578c-0.21-0.025-0.381-0.181-0.428-0.387L0.012,0.609c-0.052-0.23,0.065-0.466,0.28-0.564
			c0.216-0.098,0.47-0.033,0.61,0.157l33.828,45.77c0.11,0.15,0.129,0.35,0.047,0.518l-7.014,14.307l4.903,22.264
			c0.052,0.235-0.071,0.475-0.294,0.568C32.31,83.655,32.245,83.668,32.179,83.668z M15.987,57.641L31.108,80.63L26.75,60.841
			c-0.024-0.11-0.011-0.226,0.039-0.327l6.957-14.19L1.506,2.702l11.127,49.669l5.09,0.625c0.164,0.02,0.308,0.12,0.384,0.267
			c0.076,0.147,0.074,0.322-0.005,0.468L15.987,57.641z"/>
	</g>
</g>
</svg>
