<?xml version="1.0" encoding="utf-8"?>
<!-- Generator: Adobe Illustrator 16.0.0, SVG Export Plug-In . SVG Version: 6.00 Build 0)  -->
<!DOCTYPE svg PUBLIC "-//W3C//DTD SVG 1.1//EN" "http://www.w3.org/Graphics/SVG/1.1/DTD/svg11.dtd">
<svg version="1.1" id="Capa_1" xmlns="http://www.w3.org/2000/svg" xmlns:xlink="http://www.w3.org/1999/xlink" x="0px" y="0px"
	 width="54.458px" height="130.369px" viewBox="16.602 -36.014 54.458 130.369"
	 enable-background="new 16.602 -36.014 54.458 130.369" xml:space="preserve">
<g>
	<g>
		<path fill="#FFFAFA" d="M17.341,93.931l-0.477-0.15l7.03-22.33l4.77-37.31c0.003-0.022,0.009-0.044,0.018-0.065l9.72-23.114
			l0.382-18.744c0.001-0.033,0.008-0.065,0.021-0.095l7.508-17.184c0.025-0.057,0.07-0.103,0.127-0.128L70.01-35.742l0.205,0.456
			L46.731-24.772l-7.449,17.05L38.9,11.02c-0.001,0.032-0.007,0.063-0.02,0.092l-9.726,23.126l-4.774,37.319L17.341,93.931z"/>
	</g>
	<g>
		<path fill="#FFFAFA" d="M23.857,24.509"/>
	</g>
	<g>
		<path fill="#FFFAFA" d="M22.605,22.784l-0.291-0.407l16.016-11.44L26.546-12.233c-0.047-0.092-0.032-0.203,0.036-0.28
			c0.067-0.077,0.176-0.105,0.273-0.068L38.86-8.108l6.184-23.978c0.028-0.111,0.129-0.188,0.242-0.188c0.003,0,0.006,0,0.01,0
			c0.117,0.005,0.216,0.09,0.236,0.206l1.217,6.846l11.685-0.572c0.005,0,0.009,0,0.013,0c0.101,0,0.191,0.061,0.23,0.154
			c0.041,0.097,0.016,0.209-0.062,0.281L39.203-7.594c-0.017,0.015-0.034,0.028-0.055,0.038c-0.063,0.033-0.135,0.038-0.202,0.013
			l-11.664-4.346l11.591,22.79c0.057,0.11,0.023,0.245-0.077,0.317L22.605,22.784z M45.241-30.848L39.485-8.53l18.28-16.73
			l-11.212,0.549c-0.005,0-0.009,0-0.013,0c-0.121,0-0.225-0.086-0.246-0.206L45.241-30.848z"/>
	</g>
	<g>
		<path fill="#FFFAFA" d="M51.776,15.995L38.565,11.25c-0.068-0.025-0.123-0.078-0.148-0.146c-0.026-0.068-0.021-0.145,0.014-0.208
			l19.796-36.559l0.439,0.238L39.009,10.878l12.938,4.646L51.776,15.995z"/>
	</g>
	<g>
		<path fill="#FFFAFA" d="M38.164,41.88c-0.056,0-0.111-0.02-0.157-0.056l-9.252-7.457l0.314-0.39l8.853,7.136L38.4,11.011
			c0.002-0.132,0.105-0.239,0.237-0.246c0.122-0.018,0.246,0.09,0.261,0.22l3.432,28.83l-0.496,0.06l-2.992-25.141l-0.428,26.9
			c-0.002,0.096-0.058,0.182-0.144,0.223C38.236,41.873,38.2,41.88,38.164,41.88z"/>
	</g>
	<g>
		<path fill="#FFFAFA" d="M24.133,71.775c-0.016,0-0.032-0.001-0.049-0.004c-0.112-0.022-0.195-0.119-0.201-0.233l-2.199-44.681
			c-0.005-0.104,0.056-0.201,0.151-0.242c0.099-0.041,0.207-0.018,0.279,0.058l5.751,6.038l-4.229-8.085
			c-0.053-0.101-0.03-0.224,0.053-0.3L38.481,10.83l0.338,0.369L24.168,24.564l4.966,9.493c0.058,0.11,0.025,0.247-0.076,0.319
			c-0.101,0.072-0.24,0.059-0.326-0.031l-6.515-6.841l2.116,43.006l13.604-28.987l0.453,0.213L24.359,71.632
			C24.317,71.72,24.228,71.775,24.133,71.775z"/>
	</g>
	<g>
		
			<rect x="31.779" y="43.497" transform="matrix(0.8556 0.5177 -0.5177 0.8556 34.843 -8.1501)" fill="#FFFAFA" width="0.5" height="29.754"/>
	</g>
	<g>
		<path fill="#FFFAFA" d="M17.102,94.355c-0.042,0-0.084-0.005-0.126-0.016c-0.233-0.061-0.39-0.279-0.373-0.52l4.831-67.012
			c0.008-0.103,0.047-0.201,0.113-0.281l1.678-2.037l-1.171-1.616c-0.074-0.103-0.106-0.229-0.091-0.354l4.309-34.927
			c0.013-0.105,0.06-0.204,0.132-0.282l18.518-19.677c0.078-0.083,0.182-0.137,0.295-0.152l24.827-3.49
			c0.225-0.033,0.434,0.088,0.525,0.29c0.091,0.203,0.038,0.441-0.131,0.586l-11.527,9.85l-6.556,41.122
			c-0.007,0.038-0.017,0.074-0.031,0.109l-9.779,24.085c-0.048,0.119-0.14,0.214-0.256,0.268l-3.487,1.588l1.393,3.574
			c0.05,0.129,0.045,0.271-0.014,0.395L17.555,94.068C17.471,94.247,17.293,94.355,17.102,94.355z M22.421,27.04l-4.626,64.163
			l21.39-45.576l-1.486-3.814c-0.097-0.248,0.018-0.527,0.259-0.637l3.736-1.703l9.684-23.848l6.575-41.247
			c0.02-0.118,0.079-0.224,0.169-0.301l10.363-8.856L45.53-31.553l-18.285,19.43l-4.265,34.57l1.282,1.77
			c0.133,0.185,0.125,0.436-0.02,0.611L22.421,27.04z"/>
	</g>
</g>
</svg>
