<?xml version="1.0" encoding="utf-8"?>
<!-- Generator: Adobe Illustrator 16.0.0, SVG Export Plug-In . SVG Version: 6.00 Build 0)  -->
<!DOCTYPE svg PUBLIC "-//W3C//DTD SVG 1.1//EN" "http://www.w3.org/Graphics/SVG/1.1/DTD/svg11.dtd">
<svg version="1.1" id="Capa_1" xmlns="http://www.w3.org/2000/svg" xmlns:xlink="http://www.w3.org/1999/xlink" x="0px" y="0px"
	 width="63.988px" height="186.826px" viewBox="7.36 -78.436 63.988 186.826" enable-background="new 7.36 -78.436 63.988 186.826"
	 xml:space="preserve">
<g>
	<g>
		<path fill="#FFFAFA" d="M57.621,108.39c-0.115,0-0.229-0.04-0.321-0.117L22.238,78.89c-0.083-0.07-0.142-0.166-0.166-0.271
			l-6.834-29.784c-0.031-0.138-0.004-0.281,0.076-0.397l7.788-11.229L11.555,33.04c-0.164-0.06-0.285-0.2-0.32-0.37L7.37,13.683
			c-0.018-0.088-0.012-0.18,0.019-0.265L39.422-78.1c0.072-0.207,0.294-0.352,0.489-0.334c0.218,0.007,0.406,0.156,0.465,0.367
			l15.592,56.75c0.025,0.092,0.023,0.19-0.005,0.282L49.139,0.753l22.147,40.539c0.066,0.121,0.08,0.264,0.037,0.395L62.41,68.943
			c-0.019,0.056-0.046,0.107-0.081,0.152l-6.301,8.072l2.092,30.688c0.014,0.201-0.094,0.39-0.272,0.48
			C57.776,108.372,57.698,108.39,57.621,108.39z M23.01,78.232l34.032,28.521l-2.024-29.708c-0.008-0.123,0.029-0.244,0.104-0.342
			l6.364-8.153l8.82-26.968L48.16,1.046c-0.065-0.119-0.079-0.26-0.039-0.389l6.843-21.851L39.836-76.257L8.378,13.618l3.781,18.577
			l11.895,4.293c0.146,0.053,0.259,0.17,0.307,0.318c0.047,0.148,0.022,0.309-0.065,0.438l-8.032,11.582L23.01,78.232z"/>
	</g>
	<g>
		<path fill="#FFFAFA" d="M22.689,78.72l-0.26-0.427l13.865-8.464l13.845-5.206L34.342,22.992c-0.011-0.027-0.017-0.057-0.017-0.087
			L34.137-7.723l6.565-26.514l-1.06-43.691l0.5-0.012l1.061,43.725c0,0.022-0.002,0.044-0.008,0.066L34.63-7.665l0.195,30.521
			l15.87,41.824c0.023,0.063,0.021,0.131-0.006,0.191s-0.077,0.107-0.14,0.131l-14.037,5.273L22.689,78.72z"/>
	</g>
	<g>
		<path fill="#FFFAFA" d="M57.403,108.011L36.207,70.166c-0.052-0.092-0.04-0.205,0.027-0.285c0.067-0.078,0.175-0.109,0.276-0.072
			l18.558,6.773L50.23,64.865c-0.037-0.091-0.018-0.195,0.05-0.268c0.067-0.07,0.17-0.098,0.265-0.063l11.473,4.019l-0.166,0.472
			L50.906,65.19l4.842,11.726c0.037,0.092,0.018,0.197-0.051,0.268c-0.068,0.072-0.173,0.097-0.267,0.063l-18.458-6.736
			l20.866,37.258L57.403,108.011z"/>
	</g>
	<g>
		<path fill="#FFFAFA" d="M36.245,70.217l-20.699-21.32c-0.084-0.087-0.094-0.221-0.024-0.319c0.069-0.098,0.2-0.133,0.309-0.082
			l34.567,15.969l20.264-23.098l0.375,0.33L50.649,64.935c-0.072,0.082-0.193,0.107-0.292,0.062L16.842,49.513l19.763,20.355
			L36.245,70.217z"/>
	</g>
	<g>
		
			<rect x="17.853" y="32.366" transform="matrix(0.034 0.9994 -0.9994 0.034 80.5883 -18.1448)" fill="#FFFAFA" width="63.655" height="0.5"/>
	</g>
	<g>
		<path fill="#FFFAFA" stroke="#30529B" stroke-width="0.5" stroke-linejoin="round" stroke-miterlimit="10" d="M34.387-7.725"/>
	</g>
	<g>
		<path fill="#FFFAFA" d="M8.604,13.228l-0.41-0.285l32.396-46.66c0.04-0.058,0.103-0.096,0.172-0.105
			c0.074-0.009,0.142,0.011,0.194,0.057l14.689,12.391c0.061,0.051,0.094,0.128,0.088,0.208c-0.005,0.079-0.048,0.151-0.114,0.194
			L34.858-7.729l13.529,8.31l-0.262,0.426L34.257-7.512c-0.073-0.045-0.118-0.125-0.119-0.211c-0.001-0.086,0.043-0.167,0.115-0.213
			l20.812-13.277l-14.22-11.995L8.604,13.228z"/>
	</g>
	<g>
		<path fill="#FFFAFA" d="M50.278,64.939L24.29,36.78c-0.081-0.088-0.089-0.222-0.018-0.317l10.102-13.707L48.409,0.077l0.426,0.263
			L34.788,23.035l-9.991,13.558L50.645,64.6L50.278,64.939z"/>
	</g>
	<g>
		
			<rect x="23.115" y="15.421" transform="matrix(0.3828 0.9238 -0.9238 0.3828 39.8809 -4.5758)" fill="#FFFAFA" width="0.5" height="24.277"/>
	</g>
	<g>
		<path fill="#FFFAFA" d="M34.261,23.13L8.295,13.78c-0.084-0.031-0.146-0.104-0.161-0.193c-0.016-0.089,0.019-0.179,0.088-0.236
			l26.008-21.27l0.316,0.387L8.88,13.459l25.552,9.201L34.261,23.13z"/>
	</g>
</g>
</svg>
