<?xml version="1.0" encoding="utf-8"?>
<!-- Generator: Adobe Illustrator 16.0.0, SVG Export Plug-In . SVG Version: 6.00 Build 0)  -->
<!DOCTYPE svg PUBLIC "-//W3C//DTD SVG 1.1//EN" "http://www.w3.org/Graphics/SVG/1.1/DTD/svg11.dtd">
<svg version="1.1" id="Capa_1" xmlns="http://www.w3.org/2000/svg" xmlns:xlink="http://www.w3.org/1999/xlink" x="0px" y="0px"
	 width="28.819px" height="67.105px" viewBox="16.602 -36.014 28.819 67.105" enable-background="new 16.602 -36.014 28.819 67.105"
	 xml:space="preserve">
<g>
	<g>
		<path fill="#FFFAFA" d="M17.339,30.672l-0.473-0.164L27.467-0.063c0.011-0.031,0.027-0.059,0.049-0.083l7.411-8.38L21.291-35.401
			l0.445-0.227L35.448-8.602c0.047,0.092,0.033,0.202-0.035,0.279l-7.491,8.47L17.339,30.672z"/>
	</g>
	<g>
		
			<rect x="22.294" y="-10.957" transform="matrix(0.9428 0.3332 -0.3332 0.9428 -1.9131 -10.2596)" fill="#FFFAFA" width="13.313" height="0.5"/>
	</g>
	<g>
		<path fill="#FFFAFA" d="M31.301,2.62l-3.732-2.391c-0.027-0.018-0.052-0.041-0.07-0.067L23.06-6.209
			c-0.049-0.07-0.059-0.16-0.025-0.239c0.032-0.079,0.103-0.135,0.187-0.15l9.546-1.705l-5.868-0.155l0.014-0.5l8.321,0.22
			c0.127,0.003,0.232,0.104,0.242,0.231c0.01,0.127-0.08,0.242-0.205,0.265L23.694-6.175l4.186,6.01l3.69,2.364L31.301,2.62z"/>
	</g>
	<g>
		<path fill="#FFFAFA" d="M27.794,0.251l-0.182-0.466L43.86-6.526l-8.683-1.717l0.098-0.49l9.527,1.884
			c0.109,0.021,0.191,0.112,0.201,0.223s-0.055,0.215-0.158,0.255L27.794,0.251z"/>
	</g>
	<g>
		<path fill="#FFFAFA" d="M17.102,31.09c-0.051,0-0.103-0.008-0.153-0.023c-0.234-0.076-0.379-0.311-0.341-0.553L22.34-6.353
			c0.022-0.147,0.11-0.276,0.238-0.353l3.442-2.056l-3.753-2.906c-0.116-0.09-0.188-0.227-0.193-0.373l-1.06-23.451
			c-0.01-0.216,0.12-0.414,0.322-0.49c0.202-0.075,0.432-0.013,0.566,0.154L45.311-6.709c0.088,0.11,0.125,0.252,0.104,0.392
			c-0.021,0.139-0.102,0.263-0.221,0.34L31.82,2.755L17.548,30.817C17.461,30.989,17.286,31.09,17.102,31.09z M23.292-5.967
			l-5.214,33.536L30.99,2.183c0.039-0.078,0.099-0.145,0.172-0.192l13.024-8.503L22.082-34.009l0.98,21.692l4.149,3.214
			c0.131,0.102,0.203,0.261,0.193,0.426s-0.101,0.314-0.243,0.399L23.292-5.967z"/>
	</g>
</g>
</svg>
