<?xml version="1.0" encoding="utf-8"?>
<!-- Generator: Adobe Illustrator 16.0.0, SVG Export Plug-In . SVG Version: 6.00 Build 0)  -->
<!DOCTYPE svg PUBLIC "-//W3C//DTD SVG 1.1//EN" "http://www.w3.org/Graphics/SVG/1.1/DTD/svg11.dtd">
<svg version="1.1" id="Capa_1" xmlns="http://www.w3.org/2000/svg" xmlns:xlink="http://www.w3.org/1999/xlink" x="0px" y="0px"
	 width="52.037px" height="129.06px" viewBox="10.866 -103.436 52.037 129.06"
	 enable-background="new 10.866 -103.436 52.037 129.06" xml:space="preserve">
<g>
	<g>
		<path fill="#FFFAFA" d="M53.304,25.625c-0.157,0-0.31-0.074-0.406-0.209L24.756-13.92c-0.075-0.105-0.107-0.235-0.089-0.363
			l0.979-6.765l-5.815-0.102c-0.158-0.003-0.306-0.081-0.397-0.209L10.96-33.202c-0.126-0.176-0.125-0.412,0.003-0.586
			l13.662-18.644c0.073-0.1,0.181-0.169,0.301-0.194l5.098-1.066l-0.144-5.733c-0.003-0.111,0.031-0.219,0.097-0.308l31.875-43.498
			c0.14-0.19,0.396-0.255,0.607-0.161c0.216,0.097,0.334,0.33,0.285,0.561L56.171-71.99l6.706,19.971
			c0.04,0.119,0.034,0.248-0.017,0.362L43.361-7.761l10.42,32.734c0.074,0.235-0.032,0.489-0.253,0.599
			C53.457,25.608,53.381,25.625,53.304,25.625z M25.685-14.338l26.181,36.594L42.35-7.638c-0.037-0.117-0.03-0.243,0.02-0.355
			l19.497-43.893l-6.688-19.916c-0.029-0.085-0.034-0.176-0.016-0.263l6.115-28.695L30.884-59.28l0.15,5.979
			c0.006,0.242-0.161,0.453-0.397,0.502l-5.318,1.112L11.983-33.49l8.116,11.345l6.131,0.107c0.144,0.002,0.279,0.067,0.372,0.176
			c0.093,0.109,0.135,0.253,0.114,0.396L25.685-14.338z"/>
	</g>
	<g>
		<path fill="#FFFAFA" d="M52.6,24.56L34.385-19.465c-0.019-0.045-0.023-0.095-0.014-0.143l4.17-21.601
			c0.021-0.114,0.119-0.198,0.235-0.203l5.801-0.227l-0.072-19.352c0-0.034,0.007-0.067,0.02-0.099l17.206-40.58l0.461,0.195
			L45.006-60.94l0.073,19.542c0.001,0.135-0.105,0.246-0.24,0.251l-5.844,0.229l-4.118,21.332l18.187,43.956L52.6,24.56z"/>
	</g>
	<g>
		<path fill="#FFFAFA" d="M42.951-8.766l-0.498-0.032l2.118-32.488L30.374-53.096c-0.063-0.053-0.097-0.134-0.089-0.217
			c0.009-0.083,0.057-0.156,0.13-0.195l13.105-7.098L30.406-59.19l-0.053-0.497l14.376-1.552c0.118-0.017,0.229,0.061,0.265,0.174
			c0.036,0.114-0.015,0.237-0.119,0.294l-13.897,7.526L44.989-41.59c0.062,0.051,0.095,0.129,0.089,0.208L42.951-8.766z"/>
	</g>
	<g>
		<path fill="#FFFAFA" d="M38.701-40.458c-0.057,0-0.114-0.02-0.16-0.058L24.868-51.945l0.32-0.384l12.398,10.363l-7.263-11.187
			l0.42-0.272l8.167,12.58c0.067,0.104,0.049,0.241-0.044,0.323C38.819-40.479,38.76-40.458,38.701-40.458z"/>
	</g>
	<g>
		<path fill="#FFFAFA" d="M20.016-21.474l-0.355-0.352l18.218-18.407l-26.449,6.981l-0.127-0.483l27.335-7.215
			c0.105-0.029,0.224,0.019,0.28,0.117c0.056,0.098,0.04,0.221-0.039,0.301L20.016-21.474z"/>
	</g>
	<g>
		<path fill="#FFFAFA" d="M42.827-7.54c-0.08,0-0.157-0.039-0.205-0.107l-8.21-11.771l0.41-0.286l7.631,10.94l-3.912-31.213
			L27.244-21.799l-0.424-0.264L38.489-40.84c0.055-0.09,0.16-0.138,0.266-0.112c0.104,0.022,0.182,0.108,0.194,0.213l4.126,32.918
			c0.015,0.114-0.051,0.223-0.158,0.265C42.887-7.545,42.857-7.54,42.827-7.54z"/>
	</g>
	<g>
		<path fill="#FFFAFA" d="M25.285-13.993l-0.246-0.436l8.91-5.042l-6.96-1.743l0.121-0.485l7.567,1.896
			c0.1,0.025,0.174,0.108,0.188,0.209c0.014,0.102-0.036,0.201-0.125,0.251L25.285-13.993z"/>
	</g>
	<g>
		<path fill="#FFFAFA" d="M44.957-41.183l-0.256-0.43l17.188-10.233L44.64-60.768c-0.07-0.037-0.119-0.105-0.132-0.184
			s0.014-0.158,0.069-0.215l10.897-10.971l0.355,0.353L45.173-61.056l17.346,8.973c0.08,0.042,0.132,0.124,0.135,0.215
			s-0.044,0.176-0.122,0.222L44.957-41.183z"/>
	</g>
</g>
</svg>
