<?xml version="1.0" encoding="utf-8"?>
<!-- Generator: Adobe Illustrator 16.0.0, SVG Export Plug-In . SVG Version: 6.00 Build 0)  -->
<!DOCTYPE svg PUBLIC "-//W3C//DTD SVG 1.1//EN" "http://www.w3.org/Graphics/SVG/1.1/DTD/svg11.dtd">
<svg version="1.1" id="Capa_1" xmlns="http://www.w3.org/2000/svg" xmlns:xlink="http://www.w3.org/1999/xlink" x="0px" y="0px"
	 width="54.482px" height="202.109px" viewBox="16.866 -78.436 54.482 202.109"
	 enable-background="new 16.866 -78.436 54.482 202.109" xml:space="preserve">
<g>
	<g>
		<path fill="#FFFAFA" d="M55.065,123.673c-0.191,0-0.367-0.107-0.451-0.283L37.247,87.228c-0.027-0.059-0.045-0.123-0.047-0.189
			l-0.469-8.992l-7.301-7.172c-0.041-0.041-0.075-0.088-0.101-0.141l-12.414-25.85c-0.06-0.125-0.065-0.268-0.016-0.396
			L33.534,1.392l-9.625-20.704c-0.041-0.087-0.056-0.184-0.042-0.279l8.01-58.305c0.03-0.224,0.207-0.398,0.43-0.428
			c0.23-0.032,0.439,0.094,0.526,0.302l38.476,91.717c0.035,0.083,0.047,0.175,0.035,0.265l-2.42,16.745
			c-0.02,0.143-0.102,0.269-0.221,0.347l-4.637,3.027l3.582,4.305c0.09,0.109,0.129,0.252,0.109,0.393l-12.199,84.469
			c-0.031,0.217-0.201,0.389-0.418,0.422C55.116,123.671,55.091,123.673,55.065,123.673z M38.192,86.886l16.613,34.59l11.932-82.623
			l-3.799-4.564c-0.09-0.11-0.131-0.254-0.109-0.395s0.102-0.267,0.221-0.344l4.918-3.211l2.367-16.385L32.618-75.948l-7.74,56.347
			l9.652,20.763c0.058,0.123,0.063,0.264,0.014,0.391L17.91,44.646l12.283,25.576l7.377,7.248c0.09,0.088,0.143,0.205,0.148,0.33
			L38.192,86.886z"/>
	</g>
	<g>
		<path fill="#FFFAFA" d="M55.315,123.175l-0.5-0.002l0.168-54.561l-14.414-3.34c-0.064-0.016-0.121-0.055-0.156-0.111
			s-0.047-0.125-0.031-0.189l10.244-43.547L46.798-8.917l-9.971-25.334c-0.008-0.021-0.014-0.042-0.016-0.064l-4.688-43.484
			l0.498-0.054l4.684,43.451L47.278-9.04l3.85,30.448c0.004,0.029,0.002,0.06-0.004,0.088L40.927,64.841l14.363,3.328
			c0.113,0.027,0.193,0.129,0.193,0.246L55.315,123.175z"/>
	</g>
	<g>
		<path fill="#FFFAFA" d="M37.88,87.183l-0.363-0.342l16.516-17.518l-16.695,8.725c-0.088,0.047-0.193,0.035-0.271-0.025
			c-0.078-0.063-0.111-0.164-0.086-0.26l3.262-12.26l-10.347,5.238l-0.227-0.447l10.845-5.488c0.09-0.045,0.195-0.031,0.27,0.029
			c0.078,0.061,0.109,0.162,0.084,0.258l-3.258,12.248l17.51-9.148c0.109-0.057,0.24-0.027,0.314,0.07s0.066,0.232-0.018,0.322
			L37.88,87.183z"/>
	</g>
	<g>
		<path fill="#FFFAFA" d="M55.466,68.507l-0.463-0.188l11.574-28.584L40.802,65.207c-0.094,0.092-0.242,0.098-0.342,0.01
			L17.201,44.855l0.33-0.375l23.083,20.207l26.475-26.16c0.084-0.084,0.215-0.096,0.314-0.029c0.098,0.064,0.137,0.191,0.092,0.301
			L55.466,68.507z"/>
	</g>
	<g>
		
			<rect x="5.351" y="32.8" transform="matrix(0.0975 0.9952 -0.9952 0.0975 66.4489 -7.1728)" fill="#FFFAFA" width="63.657" height="0.5"/>
	</g>
	<g>
		<path fill="#FFFAFA" stroke="#30529B" stroke-width="0.5" stroke-linejoin="round" stroke-miterlimit="10" d="M47.046-8.949"/>
	</g>
	<g>
		<path fill="#FFFAFA" d="M70.044,13.609L37.272-33.334L24.777-19.606L47.151-9.175c0.078,0.036,0.131,0.11,0.143,0.196
			c0.01,0.085-0.023,0.17-0.092,0.225L34.571,1.511l-0.314-0.388L46.577-8.891l-22.32-10.405c-0.072-0.034-0.124-0.1-0.14-0.177
			c-0.016-0.078,0.007-0.159,0.061-0.218l12.936-14.211c0.049-0.056,0.127-0.089,0.199-0.081c0.076,0.005,0.146,0.044,0.189,0.106
			l32.951,47.2L70.044,13.609z"/>
	</g>
	<g>
		<path fill="#FFFAFA" d="M40.829,65.173l-0.408-0.289L62.37,33.726L50.7,21.613L33.782,0.943l0.387-0.316l16.904,20.654
			l11.799,12.246c0.084,0.087,0.094,0.22,0.025,0.318L40.829,65.173z"/>
	</g>
	<g>
		
			<rect x="49.789" y="25.639" transform="matrix(0.8868 0.4622 -0.4622 0.8868 18.6936 -24.5317)" fill="#FFFAFA" width="19.256" height="0.5"/>
	</g>
	<g>
		<path fill="#FFFAFA" d="M51.196,21.632l-0.182-0.465l18.861-7.341L46.87-8.771l0.35-0.356l23.283,22.868
			c0.061,0.059,0.086,0.146,0.07,0.229c-0.018,0.083-0.076,0.152-0.154,0.183L51.196,21.632z"/>
	</g>
</g>
</svg>
