<?xml version="1.0" encoding="utf-8"?>
<!-- Generator: Adobe Illustrator 16.0.0, SVG Export Plug-In . SVG Version: 6.00 Build 0)  -->
<!DOCTYPE svg PUBLIC "-//W3C//DTD SVG 1.1//EN" "http://www.w3.org/Graphics/SVG/1.1/DTD/svg11.dtd">
<svg version="1.1" id="Capa_1" xmlns="http://www.w3.org/2000/svg" xmlns:xlink="http://www.w3.org/1999/xlink" x="0px" y="0px"
	 width="92px" height="43.806px" viewBox="24.314 -67.146 92 43.806" enable-background="new 24.314 -67.146 92 43.806"
	 xml:space="preserve">
<g>
	<g>
		<path fill="#FFFAFA" d="M115.726-24.464l-31.576-11.7c-0.021-0.008-0.043-0.02-0.063-0.034l-5.33-3.97l-2.971,6.309
			c-0.039,0.085-0.125,0.141-0.219,0.144c-0.092-0.007-0.182-0.048-0.227-0.13L64.701-53.382L24.737-66.407l0.154-0.476
			l40.06,13.056c0.061,0.02,0.111,0.062,0.143,0.118l10.451,19.191l2.891-6.14c0.033-0.068,0.094-0.118,0.166-0.136
			c0.072-0.018,0.15-0.002,0.211,0.042l5.545,4.131L115.9-24.933L115.726-24.464z"/>
	</g>
	<g>
		<path fill="#FFFAFA" d="M54.187-45.882l-0.285-0.411l9.387-6.503l-14.583,4.877l-0.158-0.475l16.247-5.434
			c0.117-0.041,0.246,0.014,0.303,0.125c0.055,0.111,0.021,0.247-0.082,0.317L54.187-45.882z"/>
	</g>
	<g>
		<path fill="#FFFAFA" d="M74.949-23.59c-0.012,0-0.023-0.001-0.035-0.002c-0.129-0.019-0.223-0.133-0.215-0.263l0.602-9.935
			l-20.611-7.042c-0.078-0.027-0.137-0.089-0.16-0.167c-0.021-0.078-0.006-0.163,0.047-0.227l10.063-12.472l1.74-9.172
			c0.02-0.104,0.104-0.185,0.207-0.201c0.104-0.018,0.209,0.035,0.26,0.129l11.863,22.123c0.057,0.108,0.027,0.242-0.068,0.316
			c-0.008,0.005-0.014,0.009-0.02,0.014l0.439,0.103l-3.867,16.603C75.166-23.669,75.064-23.59,74.949-23.59z M55.189-41.19
			l20.453,6.988c0.105,0.036,0.174,0.139,0.168,0.251l-0.434,7.172l3.189-13.685c-0.084,0.03-0.182,0.009-0.25-0.055l-13.461-12.65
			L55.189-41.19z M65.148-53.579L77.545-41.93L66.738-62.083l-1.617,8.533L65.148-53.579z"/>
	</g>
	<g>
		<polygon fill="#FFFAFA" points="75.15,-23.692 74.748,-23.989 84.037,-36.547 94.148,-45.295 94.474,-44.917 84.4,-36.21 		"/>
	</g>
	<g>
		<path fill="#FFFAFA" d="M84.398-36.363c-0.029,0-0.059-0.005-0.088-0.016c-0.117-0.045-0.184-0.169-0.154-0.292l2.85-12.006
			l-8.164,8.3l-0.357-0.351l8.795-8.939c0.076-0.08,0.199-0.098,0.299-0.043c0.098,0.054,0.148,0.167,0.121,0.276l-2.615,11.018
			l3.545-6.596l0.439,0.236l-4.449,8.28C84.574-36.411,84.488-36.363,84.398-36.363z"/>
	</g>
	<g>
		<path fill="#FFFAFA" d="M74.949-23.34c-0.119,0-0.234-0.042-0.324-0.12l-20.18-17.229c-0.092-0.079-0.152-0.189-0.17-0.309
			l-0.684-4.728l-5.144-1.963c-0.045-0.018-0.088-0.042-0.127-0.072L24.507-66.25c-0.176-0.136-0.24-0.372-0.158-0.579
			c0.08-0.206,0.271-0.338,0.511-0.314l41.81,3.821c0.08,0.007,0.156,0.034,0.225,0.077l20.832,13.333
			c0.1,0.064,0.174,0.162,0.209,0.276l1.279,4.228l5.078-0.198c0.127-0.012,0.266,0.044,0.363,0.137l21.502,20.407
			c0.146,0.14,0.195,0.354,0.123,0.543c-0.074,0.189-0.254,0.315-0.457,0.32L74.961-23.34C74.957-23.34,74.953-23.34,74.949-23.34z
			 M55.238-41.327l19.891,16.982l39.459-0.829L94.121-44.598l-5.252,0.205c-0.217,0.014-0.432-0.136-0.498-0.354l-1.34-4.421
			L66.457-62.337l-39.986-3.655l22.405,17.396l5.349,2.042c0.168,0.065,0.289,0.216,0.316,0.396L55.238-41.327z"/>
	</g>
</g>
</svg>
