<?xml version="1.0" encoding="utf-8"?>
<!-- Generator: Adobe Illustrator 16.0.0, SVG Export Plug-In . SVG Version: 6.00 Build 0)  -->
<!DOCTYPE svg PUBLIC "-//W3C//DTD SVG 1.1//EN" "http://www.w3.org/Graphics/SVG/1.1/DTD/svg11.dtd">
<svg version="1.1" id="Capa_1" xmlns="http://www.w3.org/2000/svg" xmlns:xlink="http://www.w3.org/1999/xlink" x="0px" y="0px"
	 width="600.941px" height="600.939px" viewBox="0 0 600.941 600.939" enable-background="new 0 0 600.941 600.939"
	 xml:space="preserve">
<g>
	<g>
		<path fill="#222221" d="M582.969,198.301l-25.156,0l-0.25-0.625C515.232,92.094,414.381,23.873,300.633,23.873
			c-113.75,0-214.601,68.222-256.932,173.802l-0.251,0.626l-25.155,0l0.493-1.34C39.784,139.876,77.209,91.01,127.017,55.641
			C177.933,19.485,237.969,0.374,300.632,0.374c62.664,0,122.699,19.111,173.615,55.267
			c49.809,35.369,87.233,84.236,108.229,141.319L582.969,198.301z M21.155,196.308h20.948
			c20.514-50.813,55.281-94.155,100.579-125.373C189.246,38.843,243.865,21.88,300.633,21.88s111.386,16.963,157.95,49.055
			c45.297,31.218,80.064,74.56,100.578,125.373h20.948C536.781,80.248,424.653,2.367,300.632,2.367
			C176.611,2.367,64.483,80.247,21.155,196.308z"/>
	</g>
	<g>
		<path fill="#222221" d="M300.634,600.803c-0.004,0,0.001,0-0.002,0c-62.663,0.001-122.698-19.11-173.614-55.265
			C77.21,510.17,39.784,461.303,18.788,404.219l-0.493-1.34H43.45l0.251,0.626c42.332,105.581,143.183,173.802,256.931,173.802
			c113.749,0,214.601-68.221,256.932-173.802l0.25-0.626h25.156l-0.493,1.34c-20.996,57.084-58.421,105.951-108.229,141.32
			C423.334,581.69,363.294,600.803,300.634,600.803z M21.155,404.872c43.329,116.06,155.457,193.938,279.477,193.938
			c124.021,0,236.149-77.878,279.478-193.938h-20.948c-20.514,50.813-55.281,94.154-100.579,125.373
			c-46.564,32.092-101.183,49.055-157.95,49.055c-56.767,0-111.385-16.963-157.95-49.056
			c-45.297-31.218-80.064-74.56-100.579-125.372H21.155z"/>
	</g>
</g>
</svg>
