<?xml version="1.0" encoding="utf-8"?>
<!-- Generator: Adobe Illustrator 16.0.0, SVG Export Plug-In . SVG Version: 6.00 Build 0)  -->
<!DOCTYPE svg PUBLIC "-//W3C//DTD SVG 1.1//EN" "http://www.w3.org/Graphics/SVG/1.1/DTD/svg11.dtd">
<svg version="1.1" id="Capa_1" xmlns="http://www.w3.org/2000/svg" xmlns:xlink="http://www.w3.org/1999/xlink" x="0px" y="0px"
	 width="600.941px" height="600.939px" viewBox="0 0 600.941 600.939" enable-background="new 0 0 600.941 600.939"
	 xml:space="preserve">
<g id="Capa_1_1_" display="none">
	<g display="inline">
		<path d="M300.447,600.834c-47.946,0.003-96.017-11.438-139.963-34.522l0.93-1.771c96.121,50.495,212.152,44.899,302.816-14.604
			c90.387-59.324,141.649-163.09,133.952-271.008l-6.047,0.456c7.533,105.72-42.688,207.371-131.231,265.482
			c-88.822,58.295-202.498,63.775-296.663,14.309l0.93-1.771c93.523,49.131,206.42,43.688,294.635-14.207
			c88.216-57.895,138.129-159.309,130.265-264.66l-0.074-0.996l10.037-0.757l0.074,0.998
			c8.137,108.998-43.509,213.922-134.777,273.826C415.509,584.305,358.07,600.831,300.447,600.834z"/>
	</g>
	<g display="inline">
		<path d="M0.944,324.491l-0.076-0.998C-7.438,214.327,44.194,109.238,135.615,49.237c91.424-60.001,208.376-65.558,305.224-14.503
			l-0.934,1.771c-96.2-50.718-212.378-45.196-303.192,14.404C46.178,110.329-5.075,214.259,2.788,322.344l6.049-0.465
			C1.138,215.998,51.348,114.188,140.04,55.98C229.008-2.41,342.822-7.82,437.074,41.865l-0.935,1.771
			C342.533-5.712,229.494-0.339,141.138,57.652C52.776,115.643,2.874,217.212,10.905,322.725l0.076,0.996L0.944,324.491z"/>
	</g>
</g>
<g id="Capa_2" display="none">
	<g display="inline">
		<path fill="#30529C" d="M300.474,578.443c-0.357,0-0.704,0-1.062-0.002c-101.021-0.385-194.036-55.689-242.745-144.332
			l-0.482-0.877l8.295-4.549l0.48,0.875c47.054,85.629,136.904,139.053,234.487,139.424c0.34,0.002,0.687,0.002,1.026,0.002
			c97.192,0,186.979-52.664,234.519-137.633l1.746,0.977c-47.892,85.598-138.354,138.656-236.265,138.656
			c-0.348,0-0.687,0-1.034-0.002c-97.979-0.373-188.217-53.828-235.749-139.586l-4.787,2.625
			c48.488,87.498,140.553,142.039,240.517,142.42c0.349,0.002,0.705,0.002,1.054,0.002c99.895,0,192.174-54.125,241.031-141.453
			l1.746,0.979C494.042,523.921,401.083,578.439,300.474,578.443z"/>
	</g>
	<g display="inline">
		<path fill="#30529C" d="M536.65,172.499l-0.48-0.876C489.164,85.79,399.242,32.238,301.498,31.865
			c-0.34-0.001-0.691-0.002-1.032-0.002c-97.354,0-187.208,52.79-234.702,137.966l-1.746-0.975
			C111.861,83.051,202.395,29.863,300.466,29.863c0.349,0,0.69,0,1.04,0.002c98.143,0.375,188.451,53.958,235.938,139.922
			l4.791-2.619c-48.441-87.708-140.58-142.38-240.71-142.763c-0.35-0.001-0.708-0.002-1.058-0.002
			C200.411,24.403,108.06,78.66,59.244,166.2l-1.746-0.975c49.166-88.168,142.196-142.822,242.97-142.822
			c0.358,0,0.708,0,1.066,0.002c101.188,0.387,194.274,55.823,242.938,144.679l0.48,0.878L536.65,172.499z"/>
	</g>
</g>
<g>
	<path fill="#222221" d="M529.669,413.292c-0.113,0-0.227-0.025-0.33-0.076l-6.168-3.023c-0.372-0.183-0.525-0.632-0.344-1.004
		c39.569-80.843,32.186-176.857-19.269-250.574C455.136,89.236,375.871,46.137,296.697,46.137c-7.489,0-15.028,0.387-22.409,1.15
		c-0.412,0.04-0.78-0.257-0.823-0.669c-0.042-0.412,0.257-0.781,0.669-0.823c8.708-0.901,17.569-1.357,26.336-1.357
		c83.655,0,162.142,40.893,209.949,109.387c53.192,76.21,60.826,175.471,19.923,259.046c-0.088,0.179-0.242,0.315-0.431,0.38
		C529.833,413.278,529.751,413.292,529.669,413.292z M524.503,409.175l4.821,2.363c40.297-82.946,32.604-181.294-20.135-256.854
		c-38.77-55.546-97.835-92.833-163.429-104.688c22.806,4.966,45.268,13.331,66.521,24.869c36.5,19.814,68.489,48.478,92.508,82.891
		C556.413,231.716,563.943,327.982,524.503,409.175z"/>
</g>
<g>
	<path fill="#222221" d="M300.9,555.992c-83.653,0.005-162.14-40.888-209.951-109.388c-53.28-76.336-60.853-175.724-19.761-259.377
		c0.088-0.179,0.243-0.315,0.432-0.379c0.189-0.064,0.394-0.05,0.573,0.037l6.162,3.034c0.371,0.183,0.524,0.632,0.342,1.003
		C38.95,271.839,46.274,367.974,97.811,441.814c48.421,69.374,127.701,112.471,206.902,112.474c0.003,0,0.005,0,0.008,0
		c7.531,0,15.117-0.392,22.548-1.165c0.029-0.003,0.058-0.006,0.087-0.009l0,0c0.031-0.004,0.059-0.006,0.09-0.004v-0.006
		c0.41-0.045,0.78,0.256,0.824,0.668c0.043,0.412-0.256,0.781-0.668,0.824l-0.001-0.006c-0.029,0.007-0.059,0.012-0.089,0.015l0,0
		c-0.065,0.008-0.131,0.014-0.196,0.021C318.587,555.532,309.701,555.991,300.9,555.992z M72.205,188.563
		C31.723,271.587,39.354,370.06,92.18,445.745c38.845,55.654,98.054,92.977,163.794,104.756
		c-22.926-4.956-45.506-13.345-66.867-24.938c-36.512-19.814-68.506-48.478-92.526-82.89C44.874,368.59,37.403,272.2,77.021,190.934
		L72.205,188.563z"/>
</g>
</svg>
