<?xml version="1.0" encoding="utf-8"?>
<!-- Generator: Adobe Illustrator 16.0.0, SVG Export Plug-In . SVG Version: 6.00 Build 0)  -->
<!DOCTYPE svg PUBLIC "-//W3C//DTD SVG 1.1//EN" "http://www.w3.org/Graphics/SVG/1.1/DTD/svg11.dtd">
<svg version="1.1" id="Capa_1" xmlns="http://www.w3.org/2000/svg" xmlns:xlink="http://www.w3.org/1999/xlink" x="0px" y="0px"
	 width="600.941px" height="600.939px" viewBox="0 0 600.941 600.939" enable-background="new 0 0 600.941 600.939"
	 xml:space="preserve">
<g id="Capa_1_1_" display="none">
	<g display="inline">
		<path d="M300.447,600.834c-47.946,0.003-96.017-11.438-139.963-34.521l0.93-1.771c96.121,50.495,212.152,44.899,302.816-14.604
			c90.387-59.324,141.649-163.091,133.952-271.009l-6.047,0.456c7.533,105.72-42.688,207.371-131.231,265.482
			c-88.821,58.295-202.498,63.774-296.663,14.309l0.93-1.771c93.523,49.131,206.421,43.688,294.636-14.207
			c88.216-57.896,138.129-159.309,130.265-264.66l-0.074-0.996l10.037-0.757l0.074,0.998
			c8.137,108.998-43.509,213.922-134.777,273.826C415.51,584.305,358.07,600.831,300.447,600.834z"/>
	</g>
	<g display="inline">
		<path d="M0.944,324.491l-0.076-0.998C-7.438,214.327,44.194,109.238,135.615,49.237c91.424-60.001,208.376-65.559,305.225-14.503
			l-0.935,1.771C343.706-14.213,227.527-8.691,136.713,50.909C46.178,110.329-5.075,214.259,2.788,322.344l6.049-0.465
			C1.138,215.998,51.348,114.188,140.04,55.98c88.968-58.39,202.782-63.8,297.034-14.115l-0.935,1.771
			C342.533-5.712,229.494-0.339,141.138,57.652C52.776,115.643,2.874,217.212,10.905,322.726l0.076,0.995L0.944,324.491z"/>
	</g>
</g>
<g id="Capa_2" display="none">
	<g display="inline">
		<path fill="#30529C" d="M300.474,578.443c-0.357,0-0.704,0-1.063-0.002c-101.021-0.386-194.036-55.689-242.745-144.332
			l-0.481-0.877l8.295-4.55l0.479,0.875c47.055,85.629,136.904,139.054,234.487,139.425c0.34,0.002,0.688,0.002,1.026,0.002
			c97.191,0,186.979-52.664,234.519-137.634l1.746,0.978c-47.892,85.598-138.354,138.656-236.265,138.656
			c-0.348,0-0.688,0-1.034-0.002c-97.979-0.373-188.217-53.828-235.749-139.587l-4.787,2.625
			c48.488,87.498,140.553,142.039,240.518,142.421c0.349,0.002,0.705,0.002,1.054,0.002c99.895,0,192.174-54.125,241.031-141.453
			l1.745,0.979C494.042,523.921,401.083,578.439,300.474,578.443z"/>
	</g>
	<g display="inline">
		<path fill="#30529C" d="M536.65,172.499l-0.479-0.876C489.165,85.79,399.242,32.238,301.498,31.865
			c-0.34-0.001-0.69-0.002-1.031-0.002c-97.354,0-187.209,52.79-234.702,137.966l-1.746-0.975
			C111.861,83.051,202.395,29.863,300.467,29.863c0.349,0,0.689,0,1.04,0.002c98.143,0.375,188.451,53.958,235.938,139.922
			l4.791-2.619c-48.44-87.708-140.58-142.38-240.71-142.763c-0.35-0.001-0.708-0.002-1.058-0.002
			C200.411,24.403,108.06,78.66,59.244,166.2l-1.746-0.975C106.664,77.057,199.694,22.403,300.469,22.403
			c0.357,0,0.708,0,1.065,0.002c101.188,0.387,194.274,55.823,242.938,144.679l0.479,0.878L536.65,172.499z"/>
	</g>
</g>
<g>
	<g>
		<path fill="#30529B" d="M540.433,213.417h-19.679c-0.408,0-0.776-0.249-0.928-0.628
			C483.714,122.716,397.675,64.515,300.632,64.515c-97.042,0-183.081,58.201-219.195,148.274c-0.152,0.379-0.52,0.628-0.928,0.628
			H60.83c-0.327,0-0.633-0.16-0.82-0.428s-0.231-0.611-0.118-0.917c17.934-48.758,49.901-90.499,92.445-120.709
			c43.491-30.882,94.771-47.206,148.295-47.206c53.525,0,104.804,16.324,148.295,47.206c42.544,30.21,74.511,71.951,92.444,120.709
			c0.113,0.307,0.068,0.649-0.118,0.917C541.066,213.258,540.76,213.417,540.433,213.417z M521.43,211.417h17.565
			C501.976,112.51,406.371,46.157,300.632,46.157c-105.738,0-201.344,66.354-238.364,165.261h17.566
			c17.528-43.362,47.212-80.353,85.876-107c39.776-27.413,86.431-41.903,134.922-41.903c48.491,0,95.146,14.49,134.922,41.903
			C474.219,131.065,503.902,168.055,521.43,211.417z"/>
	</g>
	<g>
		<path fill="#30529B" d="M300.632,557.021c-53.524,0-104.804-16.323-148.295-47.206c-42.544-30.21-74.511-71.95-92.445-120.709
			c-0.113-0.307-0.069-0.648,0.118-0.917c0.187-0.268,0.494-0.428,0.82-0.428h19.679c0.409,0,0.776,0.249,0.928,0.628
			c36.114,90.073,122.153,148.274,219.195,148.274c97.042,0,183.082-58.201,219.195-148.274c0.151-0.379,0.52-0.628,0.928-0.628
			h19.679c0.327,0,0.633,0.16,0.82,0.428c0.187,0.269,0.231,0.61,0.118,0.917c-17.934,48.759-49.9,90.499-92.444,120.709
			C405.436,540.697,354.157,557.021,300.632,557.021z M62.268,389.761c37.021,98.907,132.626,165.26,238.364,165.26
			c105.739,0,201.344-66.353,238.364-165.26H521.43c-17.528,43.363-47.213,80.354-85.876,107
			c-39.776,27.413-86.432,41.902-134.922,41.902c-48.491,0-95.146-14.489-134.922-41.902c-38.664-26.646-68.348-63.637-85.876-107
			H62.268z"/>
	</g>
</g>
</svg>
