<?xml version="1.0" encoding="utf-8"?>
<!-- Generator: Adobe Illustrator 16.0.0, SVG Export Plug-In . SVG Version: 6.00 Build 0)  -->
<!DOCTYPE svg PUBLIC "-//W3C//DTD SVG 1.1//EN" "http://www.w3.org/Graphics/SVG/1.1/DTD/svg11.dtd">
<svg version="1.1" id="Capa_1" xmlns="http://www.w3.org/2000/svg" xmlns:xlink="http://www.w3.org/1999/xlink" x="0px" y="0px"
	 width="600.941px" height="600.939px" viewBox="0 0 600.941 600.939" enable-background="new 0 0 600.941 600.939"
	 xml:space="preserve">
<g id="Capa_1_1_" display="none">
	<g display="inline">
		<path d="M300.447,600.834c-47.946,0.003-96.017-11.438-139.963-34.522l0.93-1.771c96.121,50.495,212.152,44.899,302.816-14.604
			c90.387-59.324,141.649-163.09,133.952-271.008l-6.047,0.456c7.533,105.72-42.688,207.371-131.231,265.482
			c-88.822,58.295-202.498,63.775-296.663,14.309l0.93-1.771c93.523,49.131,206.42,43.688,294.635-14.207
			c88.216-57.895,138.129-159.309,130.265-264.66l-0.074-0.996l10.037-0.757l0.074,0.998
			c8.137,108.998-43.509,213.922-134.777,273.826C415.509,584.305,358.07,600.831,300.447,600.834z"/>
	</g>
	<g display="inline">
		<path d="M0.944,324.491l-0.076-0.998C-7.438,214.327,44.194,109.238,135.615,49.237c91.424-60.001,208.376-65.558,305.224-14.503
			l-0.934,1.771c-96.2-50.718-212.378-45.196-303.192,14.404C46.178,110.329-5.075,214.259,2.788,322.344l6.049-0.465
			C1.138,215.998,51.348,114.188,140.04,55.98C229.008-2.41,342.822-7.82,437.074,41.865l-0.935,1.771
			C342.533-5.712,229.494-0.339,141.138,57.652C52.776,115.643,2.874,217.212,10.905,322.725l0.076,0.996L0.944,324.491z"/>
	</g>
</g>
<g id="Capa_3" display="none">
	<g display="inline">
		<path d="M529.914,414.091l-7.963-3.904l0.438-0.898c39.529-80.762,32.152-176.679-19.248-250.32
			C451.742,85.325,364.255,45.327,274.813,54.576l-0.205-1.989c90.162-9.326,178.356,30.997,230.175,105.234
			c51.627,73.967,59.197,170.222,19.842,251.446l4.371,2.145c40.133-82.816,32.414-180.959-20.226-256.375
			c-52.825-75.688-142.745-116.8-234.669-107.291l-0.205-1.989c92.634-9.582,183.271,31.852,236.518,108.137
			c53.242,76.284,60.885,175.642,19.939,259.298L529.914,414.091z"/>
	</g>
	<g display="inline">
		<path d="M300.612,556.454c-83.174,0-161.898-40.469-210.081-109.5c-53.332-76.408-60.912-175.895-19.78-259.628l0.441-0.897
			l7.956,3.917l-0.44,0.896c-39.707,80.834-32.39,176.871,19.095,250.639c51.485,73.764,139.109,113.752,228.679,104.354
			l0.209,1.988c-8.719,0.916-17.433,1.365-26.083,1.365c-80.942,0.006-157.556-39.385-204.446-106.564
			c-51.711-74.09-59.223-170.466-19.688-251.768l-4.368-2.149C31.79,272.001,39.446,370.27,92.172,445.811
			c52.915,75.813,142.973,116.912,235.033,107.254l0.209,1.988C318.455,555.991,309.501,556.454,300.612,556.454z"/>
	</g>
</g>
<g>
	<path fill="#30529B" d="M300.715,577.985c-0.006,0-0.002,0-0.008,0l-1.081-0.002c-100.93-0.386-193.861-55.641-242.527-144.202
		c-0.096-0.175-0.119-0.38-0.063-0.571c0.056-0.19,0.185-0.352,0.359-0.447l6.542-3.587c0.362-0.201,0.819-0.066,1.018,0.296
		c47.097,85.707,137.031,139.181,234.705,139.553l1.118,0.002c100.916-0.004,195.577-52.65,241.16-134.122
		c0.203-0.36,0.658-0.491,1.021-0.288c0.361,0.202,0.49,0.659,0.288,1.021C494.123,523.438,401.186,577.985,300.715,577.985z
		 M58.775,433.716c48.502,87.698,140.722,142.385,240.856,142.768l1.075,0.002c74.616,0,145.048-30.238,196.287-81.914
		c-16.051,15.105-34.287,28.401-54.328,39.517c-42.978,23.836-92.042,36.437-141.887,36.438l-1.125-0.002
		c-97.967-0.373-188.194-53.876-235.652-139.674L58.775,433.716z"/>
</g>
<g>
	<path fill="#30529B" d="M537.261,171.684c-0.266,0-0.522-0.141-0.659-0.39C489.552,85.382,399.547,31.78,301.711,31.407
		l-1.124-0.002c-101.035,0-195.756,52.756-241.314,134.403c-0.001,0.002-0.002,0.004-0.003,0.006
		c-0.001,0.001-0.001,0.002-0.002,0.004c0,0-0.001,0.001-0.001,0.002c-0.001,0.001-0.001,0.003-0.002,0.004c0,0,0,0.001-0.001,0.001
		c-0.001,0.001-0.002,0.003-0.003,0.005c0,0,0,0,0,0c-0.208,0.345-0.67,0.496-1.024,0.297c-0.003-0.001-0.006-0.003-0.008-0.004
		c-0.245-0.141-0.389-0.384-0.39-0.64c0-0.115,0.029-0.233,0.091-0.345c0,0,0.035-0.062,0.035-0.062
		C107.053,77.099,200.049,22.445,300.662,22.445l1.083,0.002c101.097,0.386,194.101,55.773,242.718,144.549
		c0.096,0.175,0.117,0.38,0.062,0.571c-0.056,0.191-0.186,0.352-0.36,0.447l-6.545,3.578
		C537.505,171.655,537.382,171.684,537.261,171.684z M300.587,29.905l1.129,0.002c98.13,0.374,188.429,54.006,235.84,140.01
		l5.229-2.858C494.332,79.149,402.039,24.329,301.739,23.947l-1.078-0.002c-74.728,0-145.234,30.315-196.483,82.109
		c16.063-15.148,34.317-28.482,54.384-39.629C201.575,42.533,250.687,29.905,300.587,29.905z"/>
</g>
</svg>
