<?xml version="1.0" encoding="utf-8"?>
<!-- Generator: Adobe Illustrator 16.0.0, SVG Export Plug-In . SVG Version: 6.00 Build 0)  -->
<!DOCTYPE svg PUBLIC "-//W3C//DTD SVG 1.1//EN" "http://www.w3.org/Graphics/SVG/1.1/DTD/svg11.dtd">
<svg version="1.1" id="Capa_1" xmlns="http://www.w3.org/2000/svg" xmlns:xlink="http://www.w3.org/1999/xlink" x="0px" y="0px"
	 width="600.941px" height="600.939px" viewBox="0 0 600.941 600.939" enable-background="new 0 0 600.941 600.939"
	 xml:space="preserve">
<g>
	<path fill="#222221" d="M300.992,600.441c-48.523,0-96.852-11.879-139.789-34.355c-0.112-0.059-0.221-0.115-0.332-0.174
		c0,0-0.051-0.026-0.058-0.03c0,0,0,0,0,0c-0.367-0.192-0.508-0.646-0.315-1.013c0.193-0.368,0.645-0.51,1.013-0.315
		c0.01,0.005,0.019,0.011,0.028,0.016c0.01,0.005,0.02,0.01,0.03,0.015c37.917,19.909,81.878,30.433,127.13,30.433
		c59.65,0,120.542-18.403,171.458-51.82c88.29-57.946,138.246-159.444,130.374-264.887c-0.03-0.413,0.278-0.772,0.691-0.804
		l8.043-0.607c0.21-0.015,0.395,0.05,0.546,0.18c0.15,0.129,0.244,0.314,0.259,0.513c8.13,108.908-43.472,213.746-134.667,273.6
		C416.312,583.41,359.459,600.441,300.992,600.441z M233.297,591.175c22.161,5.134,44.904,7.767,67.695,7.767
		c58.174,0,114.741-16.946,163.589-49.005c90.529-59.417,141.844-163.391,134.048-271.486l-6.547,0.494
		c7.618,105.714-42.567,207.399-131.103,265.505c-51.157,33.575-112.341,52.066-172.28,52.066
		C269.898,596.516,251.32,594.709,233.297,591.175z"/>
</g>
<g>
	<path fill="#222221" d="M2.078,323.96c-0.178,0-0.352-0.063-0.488-0.181c-0.151-0.13-0.245-0.314-0.26-0.513
		C-6.968,214.191,44.621,109.189,135.965,49.238c49.093-32.22,105.945-49.25,164.413-49.25c48.818,0,97.423,12.02,140.558,34.76
		c0.366,0.193,0.507,0.647,0.313,1.013c-0.191,0.366-0.645,0.509-1.013,0.314C402.2,16.024,358.084,5.426,312.657,5.426
		c-59.652,0-120.539,18.399-171.443,51.809C52.776,115.276,2.831,216.933,10.869,322.536c0.032,0.412-0.277,0.772-0.69,0.805
		l-8.043,0.617C2.116,323.959,2.097,323.96,2.078,323.96z M300.378,1.488c-58.174,0-114.742,16.945-163.589,49.004
		C46.111,110.006-5.192,214.144,2.77,322.404l6.547-0.502C1.526,216.02,51.703,114.186,140.391,55.981
		C191.538,22.412,252.716,3.926,312.657,3.926c18.938,0,37.651,1.833,55.797,5.416C346.175,4.15,323.302,1.488,300.378,1.488z"/>
</g>
</svg>
