<?xml version="1.0" encoding="utf-8"?>
<!-- Generator: Adobe Illustrator 16.0.0, SVG Export Plug-In . SVG Version: 6.00 Build 0)  -->
<!DOCTYPE svg PUBLIC "-//W3C//DTD SVG 1.1//EN" "http://www.w3.org/Graphics/SVG/1.1/DTD/svg11.dtd">
<svg version="1.1" id="Capa_1" xmlns="http://www.w3.org/2000/svg" xmlns:xlink="http://www.w3.org/1999/xlink" x="0px" y="0px"
	 width="600.941px" height="600.939px" viewBox="0 0 600.941 600.939" enable-background="new 0 0 600.941 600.939"
	 xml:space="preserve">
<g id="Capa_1_1_" display="none">
	<g display="inline">
		<path d="M300.447,600.834c-47.946,0.003-96.017-11.438-139.963-34.521l0.93-1.771c96.121,50.495,212.152,44.899,302.816-14.604
			c90.387-59.324,141.649-163.091,133.952-271.009l-6.047,0.456c7.533,105.72-42.688,207.371-131.231,265.482
			c-88.821,58.295-202.498,63.774-296.663,14.309l0.93-1.771c93.523,49.131,206.421,43.688,294.636-14.207
			c88.216-57.896,138.129-159.309,130.265-264.66l-0.074-0.996l10.037-0.757l0.074,0.998
			c8.137,108.998-43.509,213.922-134.777,273.826C415.51,584.305,358.07,600.831,300.447,600.834z"/>
	</g>
	<g display="inline">
		<path d="M0.944,324.491l-0.076-0.998C-7.438,214.327,44.194,109.238,135.615,49.237c91.424-60.001,208.376-65.559,305.225-14.503
			l-0.935,1.771C343.706-14.213,227.527-8.691,136.713,50.909C46.178,110.329-5.075,214.259,2.788,322.344l6.049-0.465
			C1.138,215.998,51.348,114.188,140.04,55.98c88.968-58.39,202.782-63.8,297.034-14.115l-0.935,1.771
			C342.533-5.712,229.494-0.339,141.138,57.652C52.776,115.643,2.874,217.212,10.905,322.726l0.076,0.995L0.944,324.491z"/>
	</g>
</g>
<g id="Capa_3" display="none">
	<g display="inline">
		<path d="M529.915,414.091l-7.964-3.904l0.438-0.897c39.529-80.763,32.152-176.679-19.248-250.32
			C451.742,85.325,364.256,45.327,274.813,54.576l-0.205-1.989c90.162-9.326,178.356,30.997,230.175,105.234
			c51.627,73.967,59.197,170.222,19.843,251.445l4.37,2.146c40.134-82.816,32.414-180.959-20.226-256.375
			c-52.825-75.688-142.745-116.8-234.669-107.291l-0.205-1.989c92.634-9.582,183.271,31.852,236.518,108.137
			c53.242,76.284,60.886,175.642,19.939,259.298L529.915,414.091z"/>
	</g>
	<g display="inline">
		<path d="M300.612,556.454c-83.174,0-161.898-40.469-210.081-109.5c-53.332-76.408-60.912-175.895-19.78-259.628l0.441-0.897
			l7.956,3.917l-0.44,0.896c-39.707,80.834-32.39,176.871,19.096,250.639c51.484,73.764,139.108,113.752,228.679,104.354
			l0.209,1.987c-8.719,0.916-17.433,1.365-26.083,1.365c-80.942,0.006-157.556-39.385-204.446-106.564
			c-51.711-74.089-59.223-170.465-19.688-251.768l-4.368-2.149c-40.316,82.894-32.66,181.164,20.065,256.704
			c52.915,75.813,142.974,116.912,235.034,107.255l0.209,1.987C318.455,555.991,309.501,556.454,300.612,556.454z"/>
	</g>
</g>
<g>
	<g>
		<path fill="#30529B" d="M560.444,206.061h-21.32c-0.408,0-0.776-0.249-0.929-0.628c-39.14-97.622-132.389-160.701-237.562-160.7
			c-105.175,0-198.424,63.079-237.563,160.7c-0.152,0.379-0.52,0.628-0.928,0.628H40.82c-0.327,0-0.633-0.16-0.82-0.428
			c-0.187-0.268-0.231-0.611-0.118-0.917c19.425-52.812,54.049-98.021,100.129-130.743c47.106-33.449,102.647-51.13,160.621-51.13
			c57.974,0,113.516,17.681,160.623,51.13c46.08,32.721,80.704,77.932,100.128,130.743c0.113,0.307,0.068,0.649-0.118,0.917
			C561.077,205.901,560.771,206.061,560.444,206.061z M539.8,204.061h19.207C518.919,96.802,415.272,24.843,300.632,24.842
			c-114.639,0-218.285,71.96-258.375,179.218h19.208c18.981-46.988,51.141-87.071,93.033-115.943
			c43.081-29.691,93.613-45.385,146.134-45.385c52.52,0,103.052,15.693,146.133,45.384
			C488.658,116.989,520.817,157.072,539.8,204.061z"/>
	</g>
	<g>
		<path fill="#30529B" d="M300.632,578.336c-57.974,0-113.515-17.681-160.621-51.13C93.93,494.484,59.306,449.275,39.882,396.464
			c-0.113-0.307-0.069-0.648,0.118-0.917c0.188-0.268,0.494-0.428,0.82-0.428h21.321c0.409,0,0.776,0.249,0.928,0.628
			c39.14,97.622,132.389,160.7,237.563,160.699c105.174,0,198.423-63.078,237.563-160.699c0.152-0.379,0.521-0.628,0.929-0.628
			h21.32c0.327,0,0.633,0.16,0.82,0.428c0.187,0.269,0.231,0.61,0.118,0.917c-19.424,52.811-54.048,98.021-100.129,130.742
			C414.148,560.655,358.606,578.336,300.632,578.336z M42.258,397.119c40.09,107.258,143.736,179.217,258.375,179.217
			c114.639,0,218.286-71.959,258.375-179.217H539.8c-18.982,46.988-51.142,87.071-93.034,115.942
			c-43.081,29.691-93.613,45.385-146.133,45.385c-52.52,0-103.051-15.693-146.132-45.384
			c-41.893-28.872-74.052-68.955-93.034-115.943H42.258z"/>
	</g>
</g>
</svg>
