<?xml version="1.0" encoding="utf-8"?>
<!-- Generator: Adobe Illustrator 16.0.0, SVG Export Plug-In . SVG Version: 6.00 Build 0)  -->
<!DOCTYPE svg PUBLIC "-//W3C//DTD SVG 1.1//EN" "http://www.w3.org/Graphics/SVG/1.1/DTD/svg11.dtd">
<svg version="1.1" id="Capa_1" xmlns="http://www.w3.org/2000/svg" xmlns:xlink="http://www.w3.org/1999/xlink" x="0px" y="0px"
	 width="419.529px" height="345.83px" viewBox="0 0 419.529 345.83" enable-background="new 0 0 419.529 345.83"
	 xml:space="preserve">
<g id="Capa_1_1_" display="none">
	<g display="inline">
		<polyline fill="none" stroke="#222221" stroke-width="0.5" stroke-linejoin="round" stroke-miterlimit="10" points="
			195.487,345.83 201.501,317.899 201.677,300.476 206.217,294.7 204.389,261.233 		"/>
		<polygon fill="none" stroke="#222221" stroke-width="0.5" stroke-linejoin="round" stroke-miterlimit="10" points="
			196.552,275.487 206.217,294.7 225.802,293.998 201.677,300.476 		"/>
		<polyline fill="none" stroke="#222221" stroke-width="0.5" stroke-linejoin="round" stroke-miterlimit="10" points="
			217.815,319.692 201.501,317.899 216.332,315.624 201.677,300.476 219.806,313.294 		"/>
		<polygon fill="none" stroke="#222221" stroke-linejoin="round" stroke-miterlimit="10" points="195.487,345.83 196.552,275.487 
			204.389,261.233 225.802,293.998 219.806,313.294 217.03,315.704 217.815,319.692 		"/>
	</g>
	<g display="inline">
		<polyline fill="none" stroke="#30529B" stroke-width="0.5" stroke-linejoin="round" stroke-miterlimit="10" points="
			190.736,345.83 184.722,317.899 184.546,300.476 180.007,294.7 181.834,261.233 		"/>
		<polygon fill="none" stroke="#30529B" stroke-width="0.5" stroke-linejoin="round" stroke-miterlimit="10" points="
			189.673,275.487 180.007,294.7 160.423,293.998 184.546,300.476 		"/>
		<polyline fill="none" stroke="#30529B" stroke-width="0.5" stroke-linejoin="round" stroke-miterlimit="10" points="
			168.408,319.692 184.722,317.899 169.891,315.624 184.546,300.476 166.417,313.294 		"/>
		<polygon fill="none" stroke="#30529B" stroke-linejoin="round" stroke-miterlimit="10" points="190.736,345.83 189.673,275.487 
			181.834,261.233 160.423,293.998 166.417,313.294 169.193,315.704 168.408,319.692 		"/>
	</g>
	<g display="inline">
		<polyline fill="none" stroke="#222221" stroke-width="0.5" stroke-linejoin="round" stroke-miterlimit="10" points="190.73,0 
			184.717,27.325 184.54,44.749 180.001,50.525 181.828,83.991 		"/>
		<polygon fill="none" stroke="#222221" stroke-width="0.5" stroke-linejoin="round" stroke-miterlimit="10" points="
			189.667,69.738 180.001,50.525 160.417,51.227 184.54,44.749 		"/>
		<polyline fill="none" stroke="#222221" stroke-width="0.5" stroke-linejoin="round" stroke-miterlimit="10" points="
			168.402,25.532 184.717,27.325 169.885,29.601 184.54,44.749 166.411,31.931 		"/>
		<polygon fill="none" stroke="#222221" stroke-linejoin="round" stroke-miterlimit="10" points="190.73,0 189.667,69.738 
			181.828,83.991 160.417,51.227 166.411,31.931 169.187,29.521 168.402,25.532 		"/>
	</g>
	<g display="inline">
		<polyline fill="none" stroke="#30529B" stroke-width="0.5" stroke-linejoin="round" stroke-miterlimit="10" points="195.481,0 
			201.495,27.325 201.672,44.749 206.211,50.525 204.385,83.991 		"/>
		<polygon fill="none" stroke="#30529B" stroke-width="0.5" stroke-linejoin="round" stroke-miterlimit="10" points="
			196.545,69.738 206.211,50.525 225.795,51.227 201.672,44.749 		"/>
		<polyline fill="none" stroke="#30529B" stroke-width="0.5" stroke-linejoin="round" stroke-miterlimit="10" points="
			217.809,25.532 201.495,27.325 216.326,29.601 201.672,44.749 219.802,31.931 		"/>
		<polygon fill="none" stroke="#30529B" stroke-linejoin="round" stroke-miterlimit="10" points="195.481,0 196.545,69.738 
			204.385,83.991 225.795,51.227 219.802,31.931 217.024,29.521 217.809,25.532 		"/>
	</g>
	<rect x="-91.31" y="98.056" display="inline" fill="none" width="569.252" height="216.738"/>
	
		<text transform="matrix(1 0 0 1 17.7297 148.5059)" display="inline" fill="#222221" font-family="'Bjorn-Regular'" font-size="72" letter-spacing="12">Q</text>
	
		<text transform="matrix(1 0 0 1 89.5759 148.5059)" display="inline" fill="#222221" font-family="'Bjorn-Regular'" font-size="50" letter-spacing="10">UANTU</text>
	
		<text transform="matrix(1 0 0 1 308.9597 148.5059)" display="inline" fill="#222221" font-family="'Bjorn-Regular'" font-size="72" letter-spacing="12">M</text>
	
		<text transform="matrix(1 0 0 1 383.3015 148.5059)" display="inline" fill="#222221" font-family="'Bjorn-Regular'" font-size="60" letter-spacing="12"> </text>
	
		<text transform="matrix(1 0 0 1 -78.4202 234.9053)" display="inline" fill="#30529B" font-family="'Bjorn-Regular'" font-size="72" letter-spacing="12">formación</text>
</g>
<g id="Capa_2">
	<g>
		<polyline fill="none" stroke="#30529B" stroke-width="0.5" stroke-linejoin="round" stroke-miterlimit="10" points="
			198.055,83.637 217.278,68.525 228.594,67.555 237.307,38.53 		"/>
		
			<line fill="none" stroke="#30529B" stroke-width="0.5" stroke-linejoin="round" stroke-miterlimit="10" x1="222.565" y1="55.684" x2="228.594" y2="67.555"/>
		<polyline fill="none" stroke="#30529B" stroke-width="0.5" stroke-linejoin="round" stroke-miterlimit="10" points="
			222.721,61.656 228.594,67.555 218.458,60.85 217.278,68.525 218.331,72.83 		"/>
		<polyline fill="none" stroke="#30529B" stroke-width="0.5" stroke-linejoin="round" stroke-miterlimit="10" points="
			228.594,67.555 234.19,75.49 217.278,68.525 		"/>
		<polygon fill="none" stroke="#30529B" stroke-linejoin="round" stroke-miterlimit="10" points="198.055,83.637 218.331,72.83 
			234.168,75.758 237.307,38.53 221.896,56.239 222.721,61.656 218.094,60.609 		"/>
		<polyline fill="none" stroke="#222221" stroke-width="0.5" stroke-linejoin="round" stroke-miterlimit="10" points="
			186.264,84.787 197.362,53.875 202.417,49.104 196.469,44.908 217.651,37.787 237.462,0.604 		"/>
		<polyline fill="none" stroke="#222221" stroke-width="0.5" stroke-linejoin="round" stroke-miterlimit="10" points="
			212.14,25.823 217.651,37.787 215.12,20.846 		"/>
		<polyline fill="none" stroke="#222221" stroke-width="0.5" stroke-linejoin="round" stroke-miterlimit="10" points="
			202.284,49.239 186.604,42.548 196.469,44.908 207.073,25.664 217.651,37.787 231.524,36.192 202.594,48.957 217.444,37.858 		"/>
		<polyline fill="none" stroke="#222221" stroke-width="0.5" stroke-linejoin="round" stroke-miterlimit="10" points="
			204.186,65.307 197.362,53.875 186.604,42.548 		"/>
		<polyline fill="none" stroke="#222221" stroke-width="0.5" stroke-linejoin="round" stroke-miterlimit="10" points="
			202.417,49.104 209.697,59.317 197.546,54.071 204.927,59.891 		"/>
		<polygon fill="none" stroke="#222221" stroke-linejoin="round" stroke-miterlimit="10" points="186.264,84.787 204.186,65.307 
			204.927,59.891 209.697,59.317 231.524,36.192 237.462,0.604 215.12,20.846 212.14,25.823 207.073,25.664 186.604,42.548 		"/>
	</g>
	<g>
		<polyline fill="none" stroke="#30529B" stroke-width="0.5" stroke-linejoin="round" stroke-miterlimit="10" points="
			225.575,262.192 206.352,277.305 195.038,278.274 186.323,307.3 		"/>
		
			<line fill="none" stroke="#30529B" stroke-width="0.5" stroke-linejoin="round" stroke-miterlimit="10" x1="201.065" y1="290.146" x2="195.038" y2="278.274"/>
		<polyline fill="none" stroke="#30529B" stroke-width="0.5" stroke-linejoin="round" stroke-miterlimit="10" points="
			200.909,284.173 195.038,278.274 205.173,284.979 206.352,277.305 205.3,272.999 		"/>
		<polyline fill="none" stroke="#30529B" stroke-width="0.5" stroke-linejoin="round" stroke-miterlimit="10" points="
			195.038,278.274 189.44,270.339 206.352,277.305 		"/>
		<polygon fill="none" stroke="#30529B" stroke-linejoin="round" stroke-miterlimit="10" points="225.575,262.192 205.3,272.999 
			189.464,270.071 186.323,307.3 201.735,289.591 200.909,284.173 205.536,285.221 		"/>
		<polyline fill="none" stroke="#222221" stroke-width="0.5" stroke-linejoin="round" stroke-miterlimit="10" points="
			237.366,261.042 226.268,291.954 221.214,296.726 227.161,300.921 205.979,308.042 186.169,345.226 		"/>
		<polyline fill="none" stroke="#222221" stroke-width="0.5" stroke-linejoin="round" stroke-miterlimit="10" points="
			211.491,320.007 205.979,308.042 208.51,324.983 		"/>
		<polyline fill="none" stroke="#222221" stroke-width="0.5" stroke-linejoin="round" stroke-miterlimit="10" points="
			221.346,296.591 237.026,303.282 227.161,300.921 216.557,320.165 205.979,308.042 192.106,309.637 221.036,296.872 
			206.186,307.971 		"/>
		<polyline fill="none" stroke="#222221" stroke-width="0.5" stroke-linejoin="round" stroke-miterlimit="10" points="
			219.444,280.522 226.268,291.954 237.026,303.282 		"/>
		<polyline fill="none" stroke="#222221" stroke-width="0.5" stroke-linejoin="round" stroke-miterlimit="10" points="
			221.214,296.726 213.934,286.512 226.085,291.759 218.704,285.938 		"/>
		<polygon fill="none" stroke="#222221" stroke-linejoin="round" stroke-miterlimit="10" points="237.366,261.042 219.444,280.522 
			218.704,285.938 213.934,286.512 192.106,309.637 186.169,345.226 208.51,324.983 211.491,320.007 216.557,320.165 
			237.026,303.282 		"/>
	</g>
	<g>
		<path fill="#222221" d="M66.154,148.799c-6.961,0-12.902-2.461-17.824-7.383s-7.383-10.863-7.383-17.824
			c0-6.984,2.461-12.938,7.383-17.859c4.922-4.921,10.863-7.383,17.824-7.383c6.984,0,12.938,2.461,17.859,7.383
			c4.921,4.922,7.383,10.875,7.383,17.859c0,5.063-1.396,9.691-4.186,13.887l8.51,11.32H83.592l-3.27-4.359
			C76.08,147.346,71.357,148.799,66.154,148.799z M66.154,108.053c-4.266,0-7.922,1.523-10.969,4.57
			c-3.023,3.023-4.535,6.68-4.535,10.969c0,4.266,1.512,7.922,4.535,10.969c3.047,3.023,6.703,4.535,10.969,4.535
			c4.289,0,7.945-1.512,10.969-4.535c3.047-3.047,4.57-6.703,4.57-10.969c0-4.289-1.523-7.945-4.57-10.969
			C74.099,109.576,70.443,108.053,66.154,108.053z"/>
		<path fill="#222221" d="M142.256,133.638c0,4.186-1.479,7.756-4.441,10.718c-2.963,2.963-6.535,4.443-10.718,4.443
			c-4.186,0-7.758-1.48-10.72-4.443c-2.963-2.962-4.441-6.534-4.441-10.718v-19.873h6.736v19.873c0,2.328,0.821,4.313,2.468,5.957
			c1.644,1.646,3.629,2.466,5.957,2.466c2.325,0,4.313-0.821,5.957-2.466c1.644-1.644,2.466-3.629,2.466-5.957v-19.873h6.736
			V133.638z"/>
		<path fill="#222221" d="M184.873,148.799H177.5l-1.807-4.053h-14.258l-1.809,4.053h-7.373l16.311-36.572L184.873,148.799z
			 M164.438,138.032h8.252l-4.126-9.253L164.438,138.032z"/>
		<path fill="#222221" d="M221.679,134.59v-20.85h6.736v37.109l-22.898-22.9v20.825h-6.738V111.69L221.679,134.59z"/>
		<path fill="#222221" d="M269.277,113.765v6.738H259.17v28.296h-6.736v-28.296h-10.107v-6.738H269.277z"/>
		<path fill="#222221" d="M313.508,133.638c0,4.186-1.481,7.756-4.443,10.718c-2.963,2.963-6.535,4.443-10.718,4.443
			c-4.186,0-7.758-1.48-10.72-4.443c-2.963-2.962-4.441-6.534-4.441-10.718v-19.873h6.736v19.873c0,2.328,0.821,4.313,2.468,5.957
			c1.644,1.646,3.629,2.466,5.957,2.466c2.327,0,4.313-0.821,5.957-2.466c1.644-1.644,2.466-3.629,2.466-5.957v-19.873h6.738
			V133.638L313.508,133.638z"/>
		<path fill="#222221" d="M366.056,148.799h-6.75v-20.2l-12.131,12.155l-12.154-12.155v20.2h-6.75v-36.488l18.904,18.905
			l18.881-18.905V148.799z"/>
		<path fill="#30529B" d="M65.412,214.844c-4.146,0-7.699-1.477-10.65-4.43c-2.932-2.931-4.396-6.469-4.396-10.617
			c0-4.147,1.465-7.688,4.396-10.617c2.951-2.952,6.504-4.43,10.65-4.43h21.832v9.703H65.412c-1.477,0-2.742,0.526-3.797,1.582
			c-1.031,1.03-1.547,2.285-1.547,3.762c0,1.478,0.516,2.729,1.547,3.763c1.055,1.056,2.32,1.582,3.797,1.582h9.211
			c4.148,0,7.688,1.465,10.617,4.396c2.953,2.93,4.43,6.469,4.43,10.617c0,4.146-1.477,7.698-4.43,10.651
			c-2.93,2.93-6.469,4.396-10.617,4.396h-21.34v-9.703h21.34c1.479,0,2.73-0.517,3.764-1.547c1.055-1.056,1.58-2.32,1.58-3.797
			c0-1.453-0.525-2.707-1.58-3.763c-1.031-1.031-2.285-1.548-3.764-1.548H65.412z"/>
		<path fill="#30529B" d="M148.508,184.751v9.703h-14.555V235.2h-9.703v-40.746h-14.555v-9.703H148.508z"/>
		<path fill="#30529B" d="M212.196,213.368c0,6.023-2.133,11.168-6.398,15.434c-4.265,4.266-9.408,6.398-15.434,6.398
			s-11.168-2.133-15.434-6.398c-4.268-4.265-6.398-9.41-6.398-15.434v-28.617h9.703v28.617c0,3.352,1.184,6.211,3.551,8.578
			s5.229,3.551,8.578,3.551s6.211-1.184,8.578-3.551s3.551-5.229,3.551-8.578v-28.617h9.703V213.368z"/>
		<path fill="#30529B" d="M265.585,227.817c-4.922,4.922-10.875,7.383-17.857,7.383h-15.504v-50.449h15.504
			c6.982,0,12.938,2.461,17.857,7.383s7.385,10.875,7.385,17.859C272.969,216.954,270.507,222.896,265.585,227.817z
			 M241.925,225.497h5.803c4.289,0,7.957-1.512,11.004-4.535c3.021-3.047,4.535-6.703,4.535-10.969
			c0-4.289-1.514-7.945-4.535-10.969c-3.047-3.047-6.715-4.57-11.004-4.57h-5.801L241.925,225.497L241.925,225.497z"/>
		<path fill="#30529B" d="M292.992,184.751h9.703V235.2h-9.703V184.751z"/>
		<path fill="#30529B" d="M365.787,192.134c4.923,4.922,7.385,10.875,7.385,17.859c0,6.961-2.462,12.902-7.385,17.824
			c-4.922,4.922-10.875,7.383-17.857,7.383c-6.961,0-12.902-2.461-17.824-7.383s-7.383-10.863-7.383-17.824
			c0-6.984,2.461-12.938,7.383-17.859s10.863-7.383,17.824-7.383C354.912,184.751,360.865,187.212,365.787,192.134z
			 M347.927,225.497c4.289,0,7.943-1.512,10.969-4.535c3.047-3.047,4.57-6.703,4.57-10.969c0-4.289-1.523-7.945-4.57-10.969
			c-3.022-3.047-6.68-4.57-10.969-4.57c-4.268,0-7.922,1.523-10.97,4.57c-3.022,3.021-4.534,6.68-4.534,10.969
			c0,4.266,1.512,7.922,4.534,10.969C340.008,223.985,343.662,225.497,347.927,225.497z"/>
	</g>
</g>
</svg>
