<?xml version="1.0" encoding="utf-8"?>
<!-- Generator: Adobe Illustrator 16.0.0, SVG Export Plug-In . SVG Version: 6.00 Build 0)  -->
<!DOCTYPE svg PUBLIC "-//W3C//DTD SVG 1.1//EN" "http://www.w3.org/Graphics/SVG/1.1/DTD/svg11.dtd">
<svg version="1.1" id="Capa_1" xmlns="http://www.w3.org/2000/svg" xmlns:xlink="http://www.w3.org/1999/xlink" x="0px" y="0px"
	 width="419.531px" height="345.83px" viewBox="0 0 419.531 345.83" enable-background="new 0 0 419.531 345.83"
	 xml:space="preserve">
<g>
	<polygon fill="none" stroke="#30529B" stroke-linejoin="round" stroke-miterlimit="10" points="286.321,89.787 256.856,71.759 
		242.813,25.627 224.553,20.784 209.27,4.427 213.641,40.856 217.783,45.406 214.374,49.88 216.247,72.918 230.404,76.326 
		235.304,72.233 239.299,78.467 	"/>
	<polyline fill="none" stroke="#30529B" stroke-width="0.5" stroke-linejoin="round" stroke-miterlimit="10" points="
		285.531,89.596 242.945,68.233 231.96,49.173 236.373,45.04 223.494,30.274 209.943,5.652 	"/>
	<polyline fill="none" stroke="#30529B" stroke-width="0.5" stroke-linejoin="round" stroke-miterlimit="10" points="
		213.641,40.856 223.494,30.274 217.783,45.406 236.373,45.04 256.112,71.091 	"/>
	<polyline fill="none" stroke="#30529B" stroke-width="0.5" stroke-linejoin="round" stroke-miterlimit="10" points="
		217.783,45.406 232.191,49.571 214.374,49.88 	"/>
	<polyline fill="none" stroke="#30529B" stroke-width="0.5" stroke-linejoin="round" stroke-miterlimit="10" points="
		230.404,76.326 232.191,49.571 216.247,72.918 	"/>
	<polyline fill="none" stroke="#30529B" stroke-width="0.5" stroke-linejoin="round" stroke-miterlimit="10" points="
		235.659,71.406 232.191,49.571 256.856,71.759 242.945,68.233 	"/>
	<polyline fill="none" stroke="#30529B" stroke-width="0.5" stroke-linejoin="round" stroke-miterlimit="10" points="
		239.299,78.467 242.945,68.233 235.983,71.753 	"/>
	<polyline fill="none" stroke="#30529B" stroke-width="0.5" stroke-linejoin="round" stroke-miterlimit="10" points="
		224.553,20.784 223.494,30.274 242.813,25.627 236.373,45.04 	"/>
</g>
<g>
	<polygon fill="none" stroke="#222221" stroke-linejoin="round" stroke-miterlimit="10" points="126.322,89.787 155.787,71.759 
		169.831,25.627 188.091,20.784 203.374,4.427 199.003,40.856 194.86,45.406 198.27,49.88 196.396,72.918 182.239,76.326 
		177.34,72.233 173.345,78.467 	"/>
	<polyline fill="none" stroke="#222221" stroke-width="0.5" stroke-linejoin="round" stroke-miterlimit="10" points="
		127.112,89.596 169.698,68.233 180.684,49.173 176.271,45.04 189.149,30.274 202.7,5.652 	"/>
	<polyline fill="none" stroke="#222221" stroke-width="0.5" stroke-linejoin="round" stroke-miterlimit="10" points="
		199.003,40.856 189.149,30.274 194.86,45.406 176.271,45.04 156.531,71.091 	"/>
	<polyline fill="none" stroke="#222221" stroke-width="0.5" stroke-linejoin="round" stroke-miterlimit="10" points="194.86,45.406 
		180.452,49.571 198.27,49.88 	"/>
	<polyline fill="none" stroke="#222221" stroke-width="0.5" stroke-linejoin="round" stroke-miterlimit="10" points="
		182.239,76.326 180.452,49.571 196.396,72.918 	"/>
	<polyline fill="none" stroke="#222221" stroke-width="0.5" stroke-linejoin="round" stroke-miterlimit="10" points="
		176.984,71.406 180.452,49.571 155.787,71.759 169.698,68.233 	"/>
	<polyline fill="none" stroke="#222221" stroke-width="0.5" stroke-linejoin="round" stroke-miterlimit="10" points="
		173.345,78.467 169.698,68.233 176.66,71.753 	"/>
	<polyline fill="none" stroke="#222221" stroke-width="0.5" stroke-linejoin="round" stroke-miterlimit="10" points="
		188.091,20.784 189.149,30.274 169.831,25.627 176.271,45.04 	"/>
</g>
<g>
	<polygon fill="none" stroke="#30529B" stroke-linejoin="round" stroke-miterlimit="10" points="133.859,257.759 159.732,273.59 
		172.063,314.096 188.098,318.349 201.518,332.712 197.679,300.724 194.042,296.728 197.035,292.802 195.391,272.571 
		182.959,269.578 178.657,273.173 175.149,267.698 	"/>
	<polyline fill="none" stroke="#30529B" stroke-width="0.5" stroke-linejoin="round" stroke-miterlimit="10" points="
		134.553,257.927 171.947,276.685 181.594,293.422 177.719,297.051 189.027,310.017 200.927,331.636 	"/>
	<polyline fill="none" stroke="#30529B" stroke-width="0.5" stroke-linejoin="round" stroke-miterlimit="10" points="
		197.679,300.724 189.027,310.017 194.042,296.728 177.719,297.051 160.385,274.177 	"/>
	<polyline fill="none" stroke="#30529B" stroke-width="0.5" stroke-linejoin="round" stroke-miterlimit="10" points="
		194.042,296.728 181.39,293.072 197.035,292.802 	"/>
	<polyline fill="none" stroke="#30529B" stroke-width="0.5" stroke-linejoin="round" stroke-miterlimit="10" points="
		182.959,269.578 181.39,293.072 195.391,272.571 	"/>
	<polyline fill="none" stroke="#30529B" stroke-width="0.5" stroke-linejoin="round" stroke-miterlimit="10" points="
		178.345,273.897 181.39,293.072 159.732,273.59 171.947,276.685 	"/>
	<polyline fill="none" stroke="#30529B" stroke-width="0.5" stroke-linejoin="round" stroke-miterlimit="10" points="
		175.149,267.698 171.947,276.685 178.06,273.594 	"/>
	<polyline fill="none" stroke="#30529B" stroke-width="0.5" stroke-linejoin="round" stroke-miterlimit="10" points="
		188.098,318.349 189.027,310.017 172.063,314.096 177.719,297.051 	"/>
</g>
<g>
	<polygon fill="none" stroke="#222221" stroke-linejoin="round" stroke-miterlimit="10" points="274.353,257.759 248.479,273.59 
		236.147,314.096 220.114,318.349 206.694,332.712 210.532,300.724 214.17,296.728 211.177,292.802 212.821,272.571 
		225.252,269.578 229.555,273.173 233.063,267.698 	"/>
	<polyline fill="none" stroke="#222221" stroke-width="0.5" stroke-linejoin="round" stroke-miterlimit="10" points="
		273.659,257.927 236.265,276.685 226.618,293.422 230.493,297.051 219.185,310.017 207.286,331.636 	"/>
	<polyline fill="none" stroke="#222221" stroke-width="0.5" stroke-linejoin="round" stroke-miterlimit="10" points="
		210.532,300.724 219.185,310.017 214.17,296.728 230.493,297.051 247.826,274.177 	"/>
	<polyline fill="none" stroke="#222221" stroke-width="0.5" stroke-linejoin="round" stroke-miterlimit="10" points="
		214.17,296.728 226.821,293.072 211.177,292.802 	"/>
	<polyline fill="none" stroke="#222221" stroke-width="0.5" stroke-linejoin="round" stroke-miterlimit="10" points="
		225.252,269.578 226.821,293.072 212.821,272.571 	"/>
	<polyline fill="none" stroke="#222221" stroke-width="0.5" stroke-linejoin="round" stroke-miterlimit="10" points="
		229.866,273.897 226.821,293.072 248.479,273.59 236.265,276.685 	"/>
	<polyline fill="none" stroke="#222221" stroke-width="0.5" stroke-linejoin="round" stroke-miterlimit="10" points="
		233.063,267.698 236.265,276.685 230.151,273.594 	"/>
	<polyline fill="none" stroke="#222221" stroke-width="0.5" stroke-linejoin="round" stroke-miterlimit="10" points="
		220.114,318.349 219.185,310.017 236.147,314.096 230.493,297.051 	"/>
</g>
<g>
	<g>
		<path fill="#222221" d="M64.032,152.769c-6.961,0-12.902-2.461-17.824-7.383c-4.922-4.922-7.383-10.863-7.383-17.824
			c0-6.984,2.461-12.938,7.383-17.859s10.863-7.383,17.824-7.383c6.984,0,12.938,2.461,17.859,7.383s7.383,10.875,7.383,17.859
			c0,5.063-1.396,9.691-4.186,13.887l8.51,11.32H81.47L78.2,148.41C73.958,151.316,69.235,152.769,64.032,152.769z M64.032,112.023
			c-4.266,0-7.922,1.523-10.969,4.57c-3.023,3.023-4.535,6.68-4.535,10.969c0,4.266,1.512,7.922,4.535,10.969
			c3.047,3.021,6.703,4.535,10.969,4.535c4.289,0,7.945-1.512,10.969-4.535c3.047-3.047,4.57-6.703,4.57-10.969
			c0-4.289-1.523-7.945-4.57-10.969C71.978,113.547,68.321,112.023,64.032,112.023z"/>
	</g>
	<g>
		<path fill="#222221" d="M140.135,137.608c0,4.184-1.481,7.756-4.443,10.718c-2.963,2.963-6.535,4.443-10.718,4.443
			c-4.186,0-7.756-1.48-10.72-4.443c-2.963-2.962-4.441-6.534-4.441-10.718v-19.873h6.736v19.873c0,2.328,0.821,4.313,2.468,5.957
			c1.644,1.645,3.629,2.466,5.957,2.466c2.325,0,4.313-0.821,5.957-2.466c1.644-1.644,2.466-3.629,2.466-5.957v-19.873h6.738
			V137.608z"/>
	</g>
	<g>
		<path fill="#222221" d="M182.751,152.769h-7.373l-1.807-4.053h-14.258l-1.809,4.053h-7.373l16.311-36.572L182.751,152.769z
			 M162.316,142.003h8.252l-4.126-9.253L162.316,142.003z"/>
	</g>
	<g>
		<path fill="#222221" d="M219.558,138.56v-20.85h6.736v37.109l-22.898-22.9v20.825h-6.738V115.66L219.558,138.56z"/>
	</g>
	<g>
		<path fill="#222221" d="M267.155,117.735v6.738h-10.107v28.296h-6.736v-28.296h-10.107v-6.738H267.155z"/>
	</g>
	<g>
		<path fill="#222221" d="M311.385,137.608c0,4.184-1.481,7.756-4.443,10.718c-2.963,2.963-6.535,4.443-10.718,4.443
			c-4.186,0-7.756-1.48-10.72-4.443c-2.963-2.962-4.441-6.534-4.441-10.718v-19.873h6.738v19.873c0,2.328,0.819,4.313,2.466,5.957
			c1.644,1.645,3.629,2.466,5.957,2.466c2.327,0,4.313-0.821,5.957-2.466c1.644-1.644,2.466-3.629,2.466-5.957v-19.873h6.738
			V137.608L311.385,137.608z"/>
	</g>
	<g>
		<path fill="#222221" d="M364.266,152.769h-6.81V132.39l-12.236,12.263l-12.264-12.263v20.379h-6.81v-36.81l19.071,19.071
			l19.047-19.071L364.266,152.769L364.266,152.769z"/>
	</g>
	<path fill="#30529B" d="M175.375,188.72h9.703v50.449h-9.703V188.72z"/>
	<path fill="#30529B" d="M243.916,188.72v9.703h-14.555v40.746h-9.703v-40.746h-14.555v-9.703H243.916z"/>
</g>
</svg>
