<?xml version="1.0" encoding="utf-8"?>
<!-- Generator: Adobe Illustrator 16.0.0, SVG Export Plug-In . SVG Version: 6.00 Build 0)  -->
<!DOCTYPE svg PUBLIC "-//W3C//DTD SVG 1.1//EN" "http://www.w3.org/Graphics/SVG/1.1/DTD/svg11.dtd">
<svg version="1.1" id="Capa_1" xmlns="http://www.w3.org/2000/svg" xmlns:xlink="http://www.w3.org/1999/xlink" x="0px" y="0px"
	 width="569.76px" height="345.83px" viewBox="0 0 569.76 345.83" enable-background="new 0 0 569.76 345.83" xml:space="preserve">
<g>
	<polyline fill="none" stroke="#232322" stroke-width="0.5" stroke-linejoin="round" stroke-miterlimit="10" points="
		287.051,343.83 293.064,315.899 293.24,298.478 297.78,292.7 295.953,259.233 	"/>
	<polygon fill="none" stroke="#232322" stroke-width="0.5" stroke-linejoin="round" stroke-miterlimit="10" points="
		288.114,273.487 297.78,292.7 317.364,291.998 293.24,298.478 	"/>
	<polyline fill="none" stroke="#232322" stroke-width="0.5" stroke-linejoin="round" stroke-miterlimit="10" points="
		309.379,317.692 293.064,315.899 307.896,313.624 293.24,298.478 311.368,311.294 	"/>
	<polygon fill="none" stroke="#232322" stroke-linejoin="round" stroke-miterlimit="10" points="287.051,343.83 288.114,273.487 
		295.953,259.233 317.364,291.998 311.368,311.294 308.594,313.704 309.379,317.692 	"/>
</g>
<g>
	<polyline fill="none" stroke="#31539B" stroke-width="0.5" stroke-linejoin="round" stroke-miterlimit="10" points="282.3,343.83 
		276.286,315.899 276.109,298.478 271.57,292.7 273.397,259.233 	"/>
	<polygon fill="none" stroke="#31539B" stroke-width="0.5" stroke-linejoin="round" stroke-miterlimit="10" points="
		281.236,273.487 271.57,292.7 251.986,291.998 276.109,298.478 	"/>
	<polyline fill="none" stroke="#31539B" stroke-width="0.5" stroke-linejoin="round" stroke-miterlimit="10" points="
		259.972,317.692 276.286,315.899 261.455,313.624 276.109,298.478 257.98,311.294 	"/>
	<polygon fill="none" stroke="#31539B" stroke-linejoin="round" stroke-miterlimit="10" points="282.3,343.83 281.236,273.487 
		273.397,259.233 251.986,291.998 257.98,311.294 260.757,313.704 259.972,317.692 	"/>
</g>
<g>
	<polyline fill="none" stroke="#232322" stroke-width="0.5" stroke-linejoin="round" stroke-miterlimit="10" points="282.294,2 
		276.28,29.325 276.104,46.749 271.564,52.525 273.392,85.991 	"/>
	<polygon fill="none" stroke="#232322" stroke-width="0.5" stroke-linejoin="round" stroke-miterlimit="10" points="281.23,71.738 
		271.564,52.525 251.98,53.228 276.104,46.749 	"/>
	<polyline fill="none" stroke="#232322" stroke-width="0.5" stroke-linejoin="round" stroke-miterlimit="10" points="
		259.966,27.532 276.28,29.325 261.448,31.602 276.104,46.749 257.975,33.932 	"/>
	<polygon fill="none" stroke="#232322" stroke-linejoin="round" stroke-miterlimit="10" points="282.294,2 281.23,71.738 
		273.392,85.991 251.98,53.228 257.975,33.932 260.751,31.521 259.966,27.532 	"/>
</g>
<g>
	<polyline fill="none" stroke="#31539B" stroke-width="0.5" stroke-linejoin="round" stroke-miterlimit="10" points="287.045,2 
		293.059,29.325 293.235,46.749 297.774,52.525 295.947,85.991 	"/>
	<polygon fill="none" stroke="#31539B" stroke-width="0.5" stroke-linejoin="round" stroke-miterlimit="10" points="288.108,71.738 
		297.774,52.525 317.358,53.228 293.235,46.749 	"/>
	<polyline fill="none" stroke="#31539B" stroke-width="0.5" stroke-linejoin="round" stroke-miterlimit="10" points="
		309.371,27.532 293.059,29.325 307.89,31.602 293.235,46.749 311.364,33.932 	"/>
	<polygon fill="none" stroke="#31539B" stroke-linejoin="round" stroke-miterlimit="10" points="287.045,2 288.108,71.738 
		295.947,85.991 317.358,53.228 311.364,33.932 308.588,31.521 309.371,27.532 	"/>
</g>
<g>
	<path fill="#232322" d="M139.266,148.506c-6.961,0-12.902-2.461-17.824-7.383s-7.383-10.863-7.383-17.824
		c0-6.984,2.461-12.938,7.383-17.859s10.863-7.383,17.824-7.383c6.984,0,12.938,2.461,17.859,7.383
		c4.921,4.922,7.383,10.875,7.383,17.859c0,5.063-1.396,9.691-4.186,13.887l8.51,11.32h-12.129l-3.271-4.359
		C149.192,147.053,144.469,148.506,139.266,148.506z M139.266,107.76c-4.266,0-7.922,1.523-10.969,4.57
		c-3.023,3.023-4.535,6.68-4.535,10.969c0,4.266,1.512,7.922,4.535,10.969c3.047,3.023,6.703,4.535,10.969,4.535
		c4.289,0,7.945-1.512,10.969-4.535c3.047-3.047,4.57-6.703,4.57-10.969c0-4.289-1.523-7.945-4.57-10.969
		C147.211,109.283,143.555,107.76,139.266,107.76z"/>
	<path fill="#232322" d="M215.368,133.345c0,4.186-1.481,7.756-4.443,10.718c-2.963,2.963-6.535,4.443-10.718,4.443
		c-4.186,0-7.756-1.48-10.72-4.443c-2.963-2.962-4.441-6.534-4.441-10.718v-19.873h6.738v19.873c0,2.328,0.819,4.313,2.466,5.957
		c1.644,1.646,3.629,2.466,5.957,2.466c2.327,0,4.313-0.821,5.957-2.466c1.644-1.644,2.466-3.629,2.466-5.957v-19.873h6.738V133.345
		L215.368,133.345z"/>
	<path fill="#232322" d="M257.985,148.506h-7.373l-1.807-4.053h-14.258l-1.809,4.053h-7.373l16.311-36.572L257.985,148.506z
		 M237.55,137.739h8.252l-4.126-9.253L237.55,137.739z"/>
	<path fill="#232322" d="M294.791,134.297v-20.85h6.736v37.109l-22.898-22.9v20.825h-6.738v-37.085L294.791,134.297z"/>
	<path fill="#232322" d="M342.39,113.472v6.738h-10.107v28.296h-6.736V120.21h-10.107v-6.738H342.39z"/>
	<path fill="#232322" d="M386.616,133.345c0,4.186-1.48,7.756-4.441,10.718c-2.963,2.963-6.535,4.443-10.72,4.443
		s-7.757-1.48-10.718-4.443c-2.963-2.962-4.441-6.534-4.441-10.718v-19.873h6.736v19.873c0,2.328,0.82,4.313,2.466,5.957
		c1.646,1.646,3.63,2.466,5.957,2.466s4.313-0.821,5.956-2.466c1.646-1.644,2.469-3.629,2.469-5.957v-19.873h6.736V133.345z"/>
	<path fill="#232322" d="M439.464,148.506h-6.803v-20.359l-12.226,12.25l-12.251-12.25v20.359h-6.802v-36.774l19.053,19.053
		l19.028-19.053V148.506z"/>
	<path fill="#31539B" d="M61.096,184.457v9.703H31.987v10.688h20.355v9.701H31.987v20.355h-9.701v-50.449L61.096,184.457
		L61.096,184.457z"/>
	<path fill="#31539B" d="M119.266,191.84c4.922,4.922,7.383,10.875,7.383,17.859c0,6.961-2.461,12.901-7.383,17.823
		s-10.875,7.384-17.859,7.384c-6.961,0-12.9-2.462-17.822-7.384S76.2,216.66,76.2,209.699c0-6.984,2.461-12.938,7.383-17.859
		s10.861-7.383,17.822-7.383C108.391,184.457,114.344,186.918,119.266,191.84z M101.406,225.203c4.289,0,7.945-1.513,10.971-4.535
		c3.047-3.047,4.568-6.703,4.568-10.969c0-4.289-1.521-7.945-4.568-10.97c-3.023-3.047-6.682-4.569-10.971-4.569
		c-4.266,0-7.922,1.522-10.969,4.569c-3.021,3.022-4.535,6.681-4.535,10.97c0,4.266,1.514,7.922,4.535,10.969
		C93.485,223.69,97.141,225.203,101.406,225.203z"/>
	<path fill="#31539B" d="M156.376,234.906h-9.703v-50.449h23.766c4.406,0,8.182,1.569,11.32,4.711
		c3.117,3.117,4.676,6.879,4.676,11.285c0,3.819-1.207,7.207-3.621,10.16c-2.367,2.905-5.379,4.745-9.035,5.52l14.1,18.773h-12.129
		l-13.816-18.423h-5.555L156.376,234.906L156.376,234.906z M156.376,206.781h14.063c1.734,0,3.225-0.621,4.465-1.863
		c1.221-1.219,1.828-2.707,1.828-4.465c0-1.734-0.607-3.211-1.828-4.431c-1.24-1.241-2.729-1.862-4.465-1.862h-14.063V206.781z"/>
	<path fill="#31539B" d="M262.218,234.906h-9.703v-29.039l-17.438,17.473l-17.475-17.473v29.039H207.9v-52.453l27.178,27.176
		l27.141-27.176V234.906L262.218,234.906z"/>
	<path fill="#31539B" d="M329.212,234.906h-10.617l-2.604-5.836h-20.53l-2.604,5.836h-10.615l23.483-52.664L329.212,234.906z
		 M299.783,219.401h11.886l-5.941-13.323L299.783,219.401z"/>
	<path fill="#31539B" d="M366.709,234.906c-6.961,0-12.901-2.461-17.823-7.384c-4.922-4.922-7.384-10.862-7.384-17.823
		c0-6.984,2.462-12.938,7.384-17.859s10.862-7.383,17.823-7.383c6.983,0,12.938,2.461,17.858,7.383l-6.854,6.855
		c-3.023-3.023-6.691-4.535-11.005-4.535c-4.288,0-7.944,1.512-10.97,4.535c-3.022,3.021-4.534,6.689-4.534,11.004
		c0,4.289,1.513,7.944,4.534,10.969c3.047,3.022,6.703,4.535,10.97,4.535c4.289,0,7.957-1.513,11.005-4.535l6.854,6.854
		C379.647,232.445,373.694,234.906,366.709,234.906z"/>
	<path fill="#31539B" d="M404.595,184.457h9.703v50.449h-9.703V184.457z"/>
	<path fill="#31539B" d="M459.528,184.457c6.984,0,12.938,2.461,17.859,7.383s7.383,10.875,7.383,17.859
		c0,6.961-2.461,12.901-7.383,17.823s-10.875,7.384-17.859,7.384c-6.961,0-12.902-2.462-17.824-7.384s-7.383-10.862-7.383-17.823
		c0-6.984,2.461-12.938,7.383-17.859S452.567,184.457,459.528,184.457z M459.528,225.203c4.289,0,7.945-1.513,10.969-4.535
		c3.047-3.047,4.57-6.703,4.57-10.969c0-4.289-1.523-7.945-4.57-10.97c-3.021-3.047-6.68-4.569-10.969-4.569
		c-4.266,0-7.922,1.522-10.969,4.569c-3.023,3.022-4.535,6.681-4.535,10.97c0,4.266,1.512,7.922,4.535,10.969
		C451.606,223.69,455.263,225.203,459.528,225.203z M454.677,175.633l6.293-6.328l3.444,3.445l-6.294,6.293L454.677,175.633z"/>
	<path fill="#31539B" d="M537.772,214.445v-30.023h9.703v53.438l-32.977-32.979v29.988h-9.703v-53.402L537.772,214.445z"/>
</g>
</svg>
